<?xml version="1.0" encoding="utf-8"?>
<!-- Generator: Adobe Illustrator 19.1.0, SVG Export Plug-In . SVG Version: 6.00 Build 0)  -->
<!DOCTYPE svg PUBLIC "-//W3C//DTD SVG 1.1//EN" "http://www.w3.org/Graphics/SVG/1.1/DTD/svg11.dtd">
<svg version="1.1" id="Layer_1" xmlns="http://www.w3.org/2000/svg" xmlns:xlink="http://www.w3.org/1999/xlink" x="0px" y="0px"
	 width="595.2800293px" height="841.8900146px" viewBox="0 0 595.2800293 841.8900146"
	 enable-background="new 0 0 595.2800293 841.8900146" xml:space="preserve">
<g>
	<path d="M147.4962921,305.8963013H94.740303c-0.3159027,0-0.6191025-0.1275024-0.8408051-0.3537903
		c-0.2204971-0.2250977-0.3423004-0.5317993-0.3353958-0.8476257c0.0046005-0.181488,0.1343994-4.4830933,3.5089951-7.949585
		c2.6947021-2.7692871,8.5630035-4.918396,11.714798-6.0728149c0.6777039-0.2480774,1.2141037-0.4432983,1.5368042-0.5811768
		c1.3909988-0.5971985,2.4431-1.6678162,2.8106995-2.8645935c0.2446976-0.7960205,0.2630005-3.0887146,0.2158966-4.573822
		c-0.475502-0.6661987-1.6080017-2.2984009-2.1133957-3.4274902c-0.557106-1.2427979-0.8707047-2.5223083-1.0292053-3.3160095
		c-0.9360962-0.4078064-2.0261002-1.4047852-2.569397-3.4700012c-0.6697006-2.540802,0.0425034-4.1051941,0.8958969-4.9286804
		c-0.2997971-1.0200195-0.7052994-2.8968201-0.8694992-5.9120178c-0.2836914-5.2020874,1.030304-8.6306915,4.3956985-11.4642944
		c3.5447006-2.9817963,8.9087067-2.6555939,9.1350021-2.6452942c0.1240997,0.0045929,3.7192001,0.1665955,6.6080017,2.4201965
		c0.6994934,0.1378021,2.3040924,0.526001,3.3148956,1.3231964c3.5929108,2.8336029,3.7008972,5.8061981,3.4515991,10.3661957
		c-0.1641998,3.0162964-0.5697021,4.8919983-0.8683929,5.9120178c0.8535004,0.8234863,1.5632935,2.3878784,0.8947906,4.9286804
		c-0.5432892,2.0652161-1.6332855,3.0621948-2.569397,3.4700012c-0.158493,0.7937012-0.4720917,2.0732117-1.030304,3.3171997
		c-0.5042877,1.1278992-1.6356964,2.7601013-2.1111908,3.4263c-0.0482025,1.4851074-0.0287018,3.7789001,0.2158966,4.573822
		c0.3675995,1.1967773,1.4185944,2.267395,2.8106995,2.8645935c0.3216095,0.1378784,0.8569031,0.3330994,1.5334015,0.5800781
		c3.1529999,1.1543274,9.0211945,3.3034058,11.7171021,6.0739136c3.3746033,3.4664917,3.5043945,7.7680969,3.5090027,7.949585
		c0.006897,0.3158264-0.1148987,0.6225281-0.3354034,0.8476257
		C148.1154022,305.7687988,147.8121948,305.8963013,147.4962921,305.8963013z M96.077301,303.5439148h50.0762939
		c-0.2642059-1.2853088-0.9431-3.3780212-2.6763-5.1584167l0,0c-2.3213959-2.3857117-8.0747986-4.4921875-10.8406982-5.5053101
		c-0.727005-0.2664795-1.3025055-0.4777832-1.6504974-0.6271973c-2.0492096-0.8786926-3.5550003-2.4579773-4.1328049-4.3348999
		c-0.4593964-1.4942932-0.334198-5.0228882-0.3042908-5.7154846c0.0102921-0.2330933,0.089592-0.458313,0.2273941-0.6466064
		c0.4272995-0.5812073,1.6333008-2.306488,2.0744019-3.290802c0.7350922-1.6390991,0.9785919-3.4309998,0.980896-3.4482117
		c0.0769958-0.5811768,0.5697021-1.0187988,1.1567078-1.0233765c-0.0196075-0.0023193,0.8533936-0.1263123,1.3346863-1.9526062
		c0.5892029-2.2420959-0.3423004-2.725708-0.4502869-2.7740173c-0.2906036-0.1286011-0.542099-0.380188-0.6524048-0.6775818
		c-0.1114044-0.2975159-0.1217957-0.6375122,0.0137939-0.9247131c0.0034027-0.0056763,0.7546082-1.7149048,0.9889069-5.9945984
		c0.2539062-4.658783-0.0666046-6.4241943-2.5601959-8.390686c-0.6042023-0.4766083-1.975708-0.815506-2.5454025-0.9039001
		c-0.2102051-0.0333099-0.4077072-0.1229095-0.5708008-0.259613c-2.2984009-1.9193878-5.4445038-2.0766907-5.4766006-2.0778961
		c-0.0736008-0.0034027-4.6853027-0.2675934-7.4925003,2.095108c-2.8095016,2.3661957-3.8087997,5.0401917-3.5641022,9.5369873
		c0.2353973,4.2796936,0.9866028,5.9889221,0.9946976,6.0050049c0.1367035,0.302002,0.1412048,0.6524048,0.0102997,0.9555969
		c-0.1308975,0.3044128-0.3812943,0.5433044-0.6948929,0.6513062c-0.066597,0.0332947-0.9993057,0.5169067-0.4101028,2.7578125
		c0.4813004,1.8274841,1.3543015,1.9514771,1.3909988,1.9560852c0.586998,0.0046082,1.0233994,0.4399109,1.1004028,1.0210876
		c0.0022964,0.0172119,0.2457962,1.8091125,0.9797974,3.4470215c0.4421997,0.987793,1.6493988,2.7107849,2.0766983,3.2919922
		c0.1378021,0.1882935,0.2170029,0.4135132,0.2274017,0.6466064c0.0298004,0.6925964,0.1539001,4.2211914-0.3043976,5.7154846
		c-0.5778046,1.8757019-2.0836029,3.4562073-4.1327057,4.3348999c-0.3491974,0.1494141-0.9257965,0.3618164-1.6539993,0.6282959
		c-2.7647934,1.0131226-8.5169983,3.1197205-10.8383942,5.5042114
		C97.0111008,300.1818848,96.335701,302.2644043,96.077301,303.5439148z"/>
	<path d="M233.7964935,305.8963013h-52.7559967c-0.3159027,0-0.6190948-0.1275024-0.8408051-0.3537903
		c-0.2204895-0.2250977-0.3423004-0.5317993-0.3354034-0.8476257c0.0046082-0.181488,0.1344147-4.4830933,3.5091095-7.949585
		c2.6945953-2.7692871,8.5628967-4.918396,11.7146912-6.0728149c0.6777039-0.2480774,1.2141113-0.4432983,1.536911-0.5811768
		c1.3908997-0.5971985,2.4431-1.6678162,2.8105927-2.8645935c0.0310059-0.0999146,0.0677948-0.2642212,0.1034088-0.5341187
		c-6.0325012-1.111908-10.1182098-3.0679932-10.2985077-3.155304c-0.4054871-0.1963806-0.662796-0.6063843-0.6638947-1.055603
		c-0.0012054-0.4501953,0.2537994-0.8613892,0.6580963-1.0589905c0.1712036-0.0884094,4.4176025-2.3604126,3.7088928-9.9584961
		c-0.9727936-10.444397,0.8558044-17.6255035,5.4341125-21.3435974c3.5802917-2.9060059,8.8891907-2.6430054,9.1062927-2.6315002
		c0.135498,0.0045929,3.7398987,0.1676941,6.6320953,2.427002c0.673111,0.1470947,2.2421112,0.5490875,3.2644043,1.286499
		c3.9799042,2.8726959,5.4995117,9.6896973,4.5128937,20.2615967c-0.7086945,7.5980835,3.5377045,9.8700867,3.7181091,9.9631042
		c0.3973999,0.2033081,0.6488953,0.6167908,0.6443024,1.0625c-0.0057068,0.4455872-0.257309,0.8522949-0.6593018,1.0474854
		c-0.1802979,0.0873108-4.264801,2.043396-10.2984924,3.155304c0.0355835,0.2687988,0.0723877,0.4330139,0.1033936,0.5317993
		c0.3686981,1.1990967,1.419693,2.2697144,2.8117981,2.8669128c0.3215942,0.1378784,0.8569031,0.3330994,1.5334015,0.5800781
		c3.1529999,1.1543274,9.0213013,3.3034058,11.7171021,6.0739136c3.374588,3.4664917,3.5043945,7.7680969,3.5089874,7.949585
		c0.0069122,0.3158264-0.1148987,0.6225281-0.3353882,0.8476257
		C234.4155884,305.7687988,234.1123962,305.8963013,233.7964935,305.8963013z M182.3775024,303.5439148h50.0762939
		c-0.2642059-1.2853088-0.9430084-3.3780212-2.6763-5.1584167l0,0c-2.3213959-2.3857117-8.0747986-4.4921875-10.8406982-5.5053101
		c-0.727005-0.2664795-1.3025055-0.4777832-1.6504974-0.6271973c-2.0492096-0.8786926-3.5550079-2.4579773-4.1327057-4.3348999
		c-0.1459045-0.4732056-0.240097-1.1531982-0.2929077-2.1363831c-0.0333862-0.600708,0.392807-1.1302185,0.9878082-1.2256165
		c3.8833923-0.6236877,7.0605011-1.6734924,8.9223938-2.384491c-1.6562958-1.6481934-3.7754974-4.9700928-3.2206879-10.9255981
		c0.8912964-9.5473022-0.3354034-15.8188019-3.5469055-18.1367035c-0.7017975-0.5065002-2.1594086-0.8569031-2.6142883-0.9407043
		c-0.1998138-0.0355988-0.38591-0.1240997-0.5421143-0.253891c-2.3190918-1.9354095-5.4421997-2.0755005-5.4732056-2.0767059
		c-0.0654907-0.0023041-4.6495972-0.2182007-7.513092,2.108902c-3.8753967,3.1472015-5.4571075,9.8207092-4.5738068,19.2991028
		c0.5548096,5.9555054-1.5643921,9.2774048-3.2206879,10.9255981c1.8618927,0.7109985,5.0390015,1.7608032,8.9223938,2.384491
		c0.5950012,0.0953979,1.0211945,0.6249084,0.9878998,1.2256165c-0.0529022,0.9820862-0.1459045,1.6608887-0.2917938,2.1352844
		c-0.577713,1.8768005-2.0836029,3.4573059-4.1327057,4.3359985c-0.3491974,0.1494141-0.9257965,0.3618164-1.654007,0.6282959
		c-2.7646942,1.0131226-8.5169983,3.1197205-10.8383942,5.5042114
		C183.3112946,300.1818848,182.6358948,302.2644043,182.3775024,303.5439148z"/>
	<g>
		<path d="M296.817688,305.8963013h-34.5906067c-0.3158875,0-0.6190796-0.1275024-0.8407898-0.3537903
			c-0.2204895-0.2250977-0.3422852-0.5306091-0.3353882-0.8476257c0.0045776-0.181488,0.1331787-4.4830933,3.5079041-7.949585
			c2.6945801-2.7692871,8.5628967-4.918396,11.7146912-6.0728149c0.6777039-0.2480774,1.2140808-0.4432983,1.5368958-0.5811768
			c1.3908997-0.5971985,2.4430847-1.6678162,2.8106079-2.8645935c0.2446899-0.7960205,0.263092-3.0887146,0.2160034-4.573822
			c-0.4755249-0.6661987-1.6069031-2.2984009-2.1123047-3.4263c-0.5570984-1.243988-0.8717957-2.5234985-1.030304-3.3171997
			c-0.9362183-0.4078064-2.0262146-1.4047852-2.569519-3.4700012c-0.6684875-2.540802,0.042511-4.1051941,0.8959045-4.9286804
			c-0.298584-1.0200195-0.7041016-2.8968201-0.8682861-5.9120178c-0.2849121-5.2020874,1.0290833-8.6306915,4.3969116-11.4642944
			c3.5411987-2.9817963,8.9086914-2.6555939,9.1325989-2.6452942c0.1240845,0.0045929,3.7180786,0.1665955,6.6080017,2.4201965
			c0.6994934,0.1378021,2.3041687,0.526001,3.3148804,1.3231964c3.5941162,2.8347015,3.7019958,5.8073883,3.4515991,10.3661957
			c-0.1630859,3.0151978-0.5697021,4.8919983-0.8682861,5.9120178c0.8545837,0.8234863,1.5643921,2.3878784,0.8959045,4.9286804
			c-0.5444031,2.0652161-1.6345215,3.0621948-2.569519,3.4700012c-0.1585083,0.792511-0.4732056,2.0732117-1.0290833,3.3160095
			c-0.5066223,1.1290894-1.6379089,2.7612915-2.1134949,3.4274902c-0.0482178,1.4851074-0.028717,3.7789001,0.2160034,4.573822
			c0.3031921,0.9854736,1.0853882,1.8813782,2.2041931,2.5245972c0.5638733,0.3239746,0.7580872,1.0429993,0.434082,1.6057739
			c-0.3249817,0.5628052-1.0418091,0.7535095-1.6056824,0.4342041c-1.6380005-0.9418945-2.8027039-2.316803-3.2816162-3.8731995
			c-0.4595032-1.4942932-0.3342896-5.0228882-0.3043823-5.7154846c0.0102844-0.2330933,0.0895996-0.458313,0.2273865-0.6466064
			c0.4273071-0.5812073,1.634491-2.306488,2.0766907-3.2919922c0.7328186-1.6379089,0.9763184-3.4298096,0.9786072-3.4470215
			c0.0769958-0.5811768,0.5697937-1.0187988,1.1567078-1.0233765c-0.0195007-0.0023193,0.8545837-0.1263123,1.3357849-1.9537964
			c0.6042175-2.2961121-0.3996887-2.754425-0.4100037-2.7578125c-0.3169861-0.1091003-0.571991-0.348114-0.7017822-0.6570129
			c-0.1297913-0.3078918-0.1217957-0.6581726,0.0217896-0.9602966c0.003418-0.0056763,0.7546082-1.7149048,0.9890137-5.9945984
			c0.2550049-4.6576843-0.0655212-6.4230957-2.5603027-8.390686c-0.6042175-0.4766083-1.9756165-0.815506-2.5453186-0.9039001
			c-0.2101746-0.0333099-0.4077759-0.1229095-0.5708923-0.259613c-2.2984009-1.9193878-5.4444885-2.0766907-5.476593-2.0778961
			c-0.0689087-0.0034027-4.6852112-0.2675934-7.4913025,2.095108c-2.8106995,2.3661957-3.8099976,5.0401917-3.564209,9.5369873
			c0.2344055,4.2796936,0.9855957,5.9889221,0.9936218,6.0050049c0.1366882,0.302002,0.1412964,0.6524048,0.0102844,0.9555969
			c-0.1308899,0.3044128-0.3812866,0.5433044-0.6936951,0.6513062c-0.0678101,0.0332947-1.0004883,0.5169067-0.4111938,2.7590027
			c0.4812012,1.8262939,1.354187,1.9502869,1.3908997,1.954895c0.5870056,0.0046082,1.0234985,0.4388123,1.1004028,1.019989
			c0.0022888,0.0183105,0.2469788,1.8102112,0.980896,3.4493103c0.4422913,0.9866028,1.6482849,2.7106934,2.075592,3.290802
			c0.1377869,0.1882935,0.2171021,0.4135132,0.227417,0.6466064c0.0298767,0.6925964,0.1538696,4.2211914-0.3044128,5.7154846
			c-0.5776978,1.8757019-2.0835876,3.4562073-4.1326904,4.3348999c-0.3492126,0.1494141-0.9258118,0.3618164-1.6540222,0.6282959
			c-2.764679,1.0131226-8.5169983,3.1197205-10.8383789,5.5042114c-1.7481995,1.7963867-2.4224243,3.8789062-2.6820068,5.1584167
			h33.2547913c0.650116,0,1.1762085,0.5260925,1.1762085,1.176178
			C297.9938965,305.3702087,297.467804,305.8963013,296.817688,305.8963013z"/>
		<path d="M312.1918945,313.3967896c-7.8265991,0-14.1946106-6.367981-14.1946106-14.1945801
			c0-7.8267212,6.3680115-14.1946106,14.1946106-14.1946106c7.8266907,0,14.1946106,6.3678894,14.1946106,14.1946106
			C326.3865051,307.0288086,320.0185852,313.3967896,312.1918945,313.3967896z M312.1918945,287.3598938
			c-6.528717,0-11.8421936,5.3124084-11.8421936,11.8423157c0,6.5298767,5.3134766,11.8421936,11.8421936,11.8421936
			c6.5288086,0,11.8422852-5.3123169,11.8422852-11.8421936
			C324.0341797,292.6723022,318.7207031,287.3598938,312.1918945,287.3598938z"/>
		<g>
			<path d="M312.1918945,307.0472107c-0.650116,0-1.1762085-0.526001-1.1762085-1.1762085v-13.3366089
				c0-0.6500854,0.5260925-1.1760864,1.1762085-1.1760864s1.1762085,0.526001,1.1762085,1.1760864v13.3366089
				C313.368103,306.5212097,312.8420105,307.0472107,312.1918945,307.0472107z"/>
			<path d="M318.8607788,300.3782959h-13.337677c-0.6502075,0-1.1762085-0.526001-1.1762085-1.1760864
				c0-0.6502075,0.526001-1.1762085,1.1762085-1.1762085h13.337677c0.650116,0,1.1762085,0.526001,1.1762085,1.1762085
				C320.0369873,299.8522949,319.5108948,300.3782959,318.8607788,300.3782959z"/>
		</g>
	</g>
	<g>
		<path d="M383.1167908,305.8963013h-34.5895081c-0.3169861,0-0.6202698-0.1275024-0.8407898-0.3537903
			c-0.2204895-0.2250977-0.3423157-0.5317993-0.3353882-0.8476257c0.0045776-0.181488,0.1331787-4.4830933,3.5079041-7.949585
			c2.6968689-2.7692871,8.5640869-4.918396,11.7158813-6.0728149c0.675415-0.2480774,1.2128906-0.4432983,1.5345154-0.5811768
			c1.3944702-0.5984192,2.4442749-1.6678162,2.8096008-2.8634949c0.2480774-0.7971191,0.2663879-3.0898132,0.2181702-4.5749207
			c-0.4754944-0.6661987-1.6057739-2.2984009-2.1111755-3.4274902c-0.558197-1.2427979-0.8729248-2.5223083-1.0314026-3.3160095
			c-0.9349976-0.4078064-2.0262146-1.4047852-2.5682983-3.4711914c-0.6685181-2.5396118,0.0412903-4.1040039,0.8959045-4.9274902
			c-0.3010254-1.0200195-0.7053223-2.8968201-0.8707275-5.9120178c-0.2824707-5.203186,1.0315247-8.6317902,4.3969116-11.4642944
			c3.5354919-2.9772034,8.9064026-2.6578979,9.1337891-2.6452942c0.124115,0.0045929,3.7192993,0.1665955,6.6092224,2.4201965
			c0.6983032,0.1378021,2.3040771,0.5249023,3.3148804,1.3231964c3.5928955,2.8347015,3.7008057,5.8073883,3.4504089,10.3661957
			c-0.1630859,3.0151978-0.5674133,4.8919983-0.8682861,5.9120178c0.8545837,0.8234863,1.5643921,2.3878784,0.895874,4.9286804
			c-0.5443726,2.0652161-1.6332703,3.0621948-2.5682678,3.4700012c-0.1608276,0.792511-0.4732056,2.0732117-1.0315247,3.3160095
			c-0.5052795,1.1290894-1.6379089,2.7612915-2.1134033,3.4274902c-0.04599,1.4862976-0.0275879,3.7801208,0.2159119,4.573822
			c0.3032837,0.9854736,1.0866089,1.8813782,2.2053833,2.5245972c0.5628052,0.3239746,0.7581177,1.0429993,0.4342041,1.6057739
			c-0.3262939,0.5651245-1.0475769,0.7524109-1.6058044,0.4342041c-1.6378784-0.9418945-2.8049011-2.316803-3.2804871-3.8742981
			c-0.4594116-1.4931946-0.3353882-5.0217896-0.3078003-5.714386c0.0115051-0.2330933,0.0895996-0.458313,0.2297058-0.6466064
			c0.4273071-0.5812073,1.6356812-2.306488,2.0766907-3.290802c0.7373962-1.6517029,0.9764099-3.4298096,0.9786987-3.4482117
			c0.0758057-0.5822754,0.5697021-1.0187988,1.1578064-1.0233765c-0.0206909-0.0023193,0.8522034-0.1275024,1.3345947-1.9537964
			c0.6042175-2.2961121-0.3996887-2.754425-0.4111938-2.7578125c-0.3169861-0.1091003-0.571991-0.348114-0.700592-0.6570129
			c-0.131012-0.3089905-0.1217957-0.6581726,0.0229797-0.9602966c0.0023193-0.006897,0.7558289-1.7149048,0.9878235-5.9934998
			c0.2550049-4.658783-0.0644226-6.4241943-2.5591125-8.3917847c-0.5766907-0.4548035-1.8699951-0.7960052-2.547699-0.9051056
			c-0.2090149-0.0332947-0.4065857-0.1228943-0.5697021-0.2584076c-2.2994995-1.9193878-5.444397-2.0766907-5.476593-2.0778961
			c-0.0735168-0.0102997-4.6910095-0.2640991-7.4913025,2.095108c-2.8095093,2.3649902-3.8088074,5.0390015-3.5653076,9.5380859
			c0.234314,4.278595,0.987793,5.9866028,0.9947205,6.0039062c0.1377869,0.3009033,0.142395,0.6512146,0.0114746,0.9555969
			c-0.1308899,0.3044128-0.3812866,0.5433044-0.6937866,0.6513062c-0.0689087,0.0332947-1.0016174,0.5169067-0.4111938,2.7578125
			c0.4801025,1.8274841,1.3553772,1.9514771,1.3921814,1.9560852c0.5857239,0.0046082,1.0222168,0.4399109,1.1003113,1.0210876
			c0.0022888,0.0184021,0.2434998,1.8091125,0.9786072,3.4470215c0.4411011,0.9855042,1.6471863,2.7107849,2.0744934,3.2919922
			c0.1401062,0.1882935,0.2182007,0.4135132,0.2297058,0.6466064c0.0297852,0.6925964,0.1539001,4.22229-0.3079224,5.7167053
			c-0.5742798,1.8733826-2.0789795,3.4538879-4.1304016,4.3336792c-0.3491821,0.1494141-0.9257812,0.3618164-1.6539917,0.6282959
			c-2.7635803,1.0131226-8.5158081,3.1197205-10.8382874,5.5042114c-1.7322083,1.7803955-2.4121094,3.8720093-2.6763,5.1584167
			h33.2478943c0.6500854,0,1.1760864,0.5260925,1.1760864,1.176178
			C384.2928772,305.3702087,383.7668762,305.8963013,383.1167908,305.8963013z"/>
		<path d="M398.4920959,313.3967896c-7.8265991,0-14.1946106-6.367981-14.1946106-14.1945801
			c0-7.8267212,6.3680115-14.1946106,14.1946106-14.1946106c7.8266907,0,14.1947021,6.3678894,14.1947021,14.1946106
			C412.6867981,307.0288086,406.3187866,313.3967896,398.4920959,313.3967896z M398.4920959,287.3598938
			c-6.528717,0-11.8421936,5.3124084-11.8421936,11.8423157c0,6.5298767,5.3134766,11.8421936,11.8421936,11.8421936
			c6.5288086,0,11.8422852-5.3123169,11.8422852-11.8421936
			C410.3343811,292.6723022,405.0209045,287.3598938,398.4920959,287.3598938z"/>
		<g>
			<path d="M405.1610107,300.3782959h-13.3377075c-0.650116,0-1.1762085-0.526001-1.1762085-1.1760864
				c0-0.6502075,0.5260925-1.1762085,1.1762085-1.1762085h13.3377075c0.6500854,0,1.176178,0.526001,1.176178,1.1762085
				C406.3371887,299.8522949,405.8110962,300.3782959,405.1610107,300.3782959z"/>
		</g>
	</g>
	<g>
		<path d="M505.8234863,305.8963013h-9.673584c-0.6341248,0-1.1555176-0.5031128-1.1762085-1.1371155
			c-0.0206909-0.6500854,0.4869995-1.2278748,1.137085-1.2496948c0.1195068,0.0023193,0.2275085,0.0092163,0.3354187,0.0344238
			h7.9690857c-0.2089844-0.6949158-0.6087036-1.5839233-1.3691101-2.3638
			c-1.3392944-1.3772278-4.7782898-2.637207-6.4299927-3.2426147c-0.4570923-0.1665039-0.8177795-0.3009033-1.0359802-0.3938904
			c-1.3738098-0.5881042-2.384613-1.6552124-2.775116-2.9279175c-0.2962952-0.9567871-0.2342834-3.0265808-0.2089844-3.6387939
			c0.0113831-0.2331848,0.0895996-0.4594116,0.2296753-0.6477966c0.2527161-0.3423157,0.9625244-1.3565063,1.2129211-1.9182129
			c0.4203796-0.9360962,0.5628052-1.9653015,0.5628052-1.9755859c0.078186-0.5801086,0.5720825-1.0177002,1.1578979-1.0223083
			c-0.0391235-0.0137939,0.2066956-0.2158813,0.3721008-0.8476868c0.2113953-0.8051147,0.0437012-1.1152954-0.0390015-1.165802
			c-0.3148193-0.1091003-0.5284119-0.3308105-0.6571045-0.639801c-0.1309204-0.3078003-0.0803833-0.639801,0.0643921-0.9418945l0,0
			c-0.0022888,0,0.4204102-1.0027161,0.5582275-3.482605c0.1469727-2.7004089-0.0184326-3.6480103-1.3875122-4.7276917
			c-0.2527161-0.1987-0.9396057-0.3939209-1.339325-0.458313c-0.2090759-0.0332947-0.4088745-0.1228943-0.5697021-0.2583923
			c-1.2749939-1.0648193-3.0461731-1.1589966-3.0644836-1.1600952c-0.0483093-0.0035095-2.683197-0.1493225-4.2499084,1.169281
			c-1.585083,1.3370056-2.1478882,2.8612061-2.007782,5.4352112c0.135498,2.4891052,0.5627747,3.4884033,0.5673828,3.4975891
			c0.1308899,0.3009033,0.135498,0.6524048,0.0023193,0.9533081c-0.1309204,0.3009949-0.3789978,0.5409851-0.689209,0.6477966
			c0,0.0173035-0.1676941,0.3262939,0.0437012,1.1303101c0.1654053,0.6329041,0.4111938,0.8349915,0.4916077,0.8591919
			c0.5857849,0.0057068,0.9601746,0.4317932,1.0382996,1.0119019c0,0.0102844,0.1424866,1.0394897,0.5606079,1.9721985
			c0.2526855,0.565094,0.9624634,1.5792847,1.2151794,1.9216003c0.1401062,0.1894836,0.2182007,0.415802,0.2297058,0.6489868
			l-1.3713989,0.1929016l-0.7512207,0.5548096c-0.1080017-0.1470032-1.0704956-1.4621887-1.4702759-2.3569031
			c-0.3078003-0.6868896-0.500824-1.3921814-0.6133118-1.8999023c-0.6203003-0.3457031-1.2726746-1.0405884-1.6034851-2.3063965
			c-0.4135132-1.5667114-0.045929-2.6141968,0.480072-3.244812c-0.1790771-0.6948853-0.3881836-1.8113708-0.4777832-3.4550781
			c-0.1838074-3.3275146,0.6661987-5.5294189,2.839386-7.3615112c2.2994995-1.9364929,5.75-1.7229004,5.8947144-1.7193909
			c0.0665894,0.0022888,2.3294067,0.1044922,4.1924133,1.5035095c0.5122681,0.1090698,1.4633789,0.3652954,2.1088867,0.8751831
			c2.3592834,1.85849,2.4328003,3.8605957,2.2789001,6.7022095c-0.0895996,1.6448975-0.2987061,2.7612915-0.4801941,3.4550781
			c0.5284119,0.6317139,0.8936768,1.6793213,0.4801941,3.2460022c-0.33078,1.2657166-0.9832153,1.9595032-1.6058044,2.3052063
			c-0.1102905,0.5077209-0.3031921,1.2141113-0.6134033,1.9033203c-0.298584,0.6695862-0.9165955,1.5792847-1.2519836,2.0525818
			c-0.0252075,1.0003967,0.0114746,2.153595,0.1171875,2.4971008c0.1860962,0.6040955,0.7282104,1.1485901,1.4542236,1.4598999
			c0.1951904,0.0827026,0.5144653,0.1987,0.9187622,0.3468018c1.9550171,0.7167969,5.593811,2.050293,7.3076172,3.8111877
			c2.1822815,2.2421265,2.2649841,5.0378113,2.2673035,5.1561279c0.006897,0.3158875-0.1148071,0.6213989-0.3354187,0.8464966
			C506.4414978,305.7687988,506.1405945,305.8963013,505.8234863,305.8963013z"/>
		<path d="M492.8143005,305.8963013h-52.756012c-0.3169861,0-0.6202087-0.1275024-0.8407898-0.3537903
			c-0.2204895-0.2250977-0.3423157-0.5317993-0.3354187-0.8476257c0.0046082-0.181488,0.1333008-4.4830933,3.5102234-7.949585
			c2.6947021-2.7705078,8.5663757-4.9195862,11.7204895-6.0751038c0.6730957-0.2468872,1.2082825-0.4410095,1.532196-0.5788879
			c1.3898926-0.5971985,2.4396973-1.6678162,2.8096008-2.8645935c0.2434998-0.7937012,0.2618103-3.0875244,0.2135925-4.573822
			c-0.4754944-0.6661987-1.6058044-2.2984009-2.1111755-3.4274902c-0.5559082-1.2427979-0.8706055-2.5234985-1.0314331-3.3160095
			c-0.9349976-0.4078064-2.0238953-1.4047852-2.5682983-3.4700012c-0.6684875-2.540802,0.0413208-4.1051941,0.8959045-4.9286804
			c-0.298584-1.0200195-0.7052917-2.8968201-0.8683777-5.9131165c-0.28479-5.2009888,1.0292053-8.6295929,4.3946838-11.4631958
			c3.5376892-2.9806976,8.906311-2.6578979,9.1361084-2.6452942c0.1239929,0.0045929,3.7192078,0.1665955,6.6091003,2.4201965
			c0.6983948,0.1378021,2.3017883,0.526001,3.3125916,1.3231964c3.5928955,2.8312988,3.7008972,5.8050995,3.4527893,10.365097
			c-0.1653748,3.0162964-0.5697937,4.8930969-0.870697,5.9131165c0.8546143,0.8234863,1.5644226,2.3878784,0.8959045,4.9286804
			c-0.5420837,2.0652161-1.6332703,3.0621948-2.5682983,3.4700012c-0.1585083,0.7937012-0.4732056,2.0744019-1.0314026,3.3171997
			c-0.5054016,1.1278992-1.6356812,2.7601013-2.1112061,3.4263c-0.0481873,1.4862976-0.0298767,3.7801208,0.213623,4.573822
			c0.3699036,1.1956787,1.4196777,2.267395,2.8141785,2.8645935c0.3216248,0.1378784,0.8591003,0.3330994,1.5345154,0.5811768
			c3.1517944,1.1544189,9.0189819,3.3035278,11.7158813,6.0728149l0,0c3.3746033,3.4664917,3.5033264,7.7680969,3.5079041,7.949585
			c0.006897,0.3158264-0.1148987,0.6225281-0.3353882,0.8476257
			C493.4346008,305.7687988,493.1312866,305.8963013,492.8143005,305.8963013z M441.3999023,303.5439148h50.0727844
			c-0.2641907-1.2864075-0.9440918-3.3780212-2.6763-5.1584167c-2.3225098-2.384491-8.074707-4.4910889-10.8382874-5.5042114
			c-0.7282104-0.2664795-1.3048096-0.4788818-1.6540222-0.6282959c-2.0491943-0.8786926-3.5560913-2.459198-4.132782-4.3348999
			c-0.4594116-1.4942932-0.3352966-5.0228882-0.3055115-5.7154846c0.0115051-0.2330933,0.0895996-0.458313,0.2297058-0.6466064
			c0.4273071-0.5812073,1.6333923-2.306488,2.0744019-3.290802c0.735199-1.6390991,0.9764099-3.4298096,0.9786987-3.4482117
			c0.0780945-0.5811768,0.571991-1.0187988,1.1578064-1.0233765c-0.0207214-0.0023193,0.8544922-0.1263123,1.3346863-1.9526062
			c0.6040955-2.2973022-0.3997803-2.7556152-0.4111938-2.7590027c-0.3171082-0.1091003-0.572113-0.348114-0.7007141-0.6570129
			c-0.1308899-0.3089905-0.1217957-0.6581726,0.0230103-0.9602966c0.0022888-0.006897,0.7558289-1.7149048,0.9901123-5.9945984
			c0.2527161-4.658783-0.0689087-6.4241943-2.5614014-8.390686c-0.6042175-0.4766083-1.975708-0.815506-2.5431213-0.9039001
			c-0.2112732-0.0333099-0.4088745-0.1229095-0.571991-0.259613c-2.2994995-1.9193878-5.444397-2.0766907-5.476593-2.0778961
			c-0.0758057-0.0102997-4.6931763-0.2640991-7.4935913,2.095108c-2.8095093,2.3661957-3.8088074,5.0390015-3.5630188,9.5369873
			c0.2319946,4.2796936,0.9855042,5.9877014,0.9924316,6.0050049c0.1378784,0.3009033,0.1424866,0.6512146,0.0114746,0.9555969
			c-0.1308899,0.3044128-0.3812866,0.5433044-0.6937866,0.6513062c-0.0689087,0.0332947-1.0015259,0.5169067-0.4112244,2.7578125
			c0.4825134,1.8262939,1.3554077,1.9514771,1.3922119,1.9560852c0.5858154,0.0046082,1.0221863,0.4388123,1.1003113,1.019989
			c0.0022888,0.0183105,0.2457886,1.8102112,0.9786987,3.4493103c0.440979,0.984314,1.6470947,2.7095947,2.0744019,3.290802
			c0.1400757,0.1882935,0.2182007,0.4135132,0.2296753,0.6466064c0.0299072,0.6925964,0.1539001,4.2211914-0.305481,5.7154846
			c-0.5765991,1.8769226-2.0836182,3.4562073-4.1304932,4.3348999c-0.3492126,0.1494141-0.9235229,0.3607178-1.6494141,0.6271973
			c-2.7658997,1.0119019-8.5203857,3.1184998-10.8428955,5.5053101
			C442.3440857,300.1658936,441.6663818,302.2575073,441.3999023,303.5439148z"/>
		<path d="M436.7250061,305.8963013h-9.9103088c-0.3170166,0-0.6179199-0.1275024-0.8406982-0.3537903
			c-0.2206116-0.2250977-0.3423157-0.5306091-0.3354187-0.8464966c0.0023193-0.1183167,0.085022-2.9140015,2.2673035-5.1561279
			c1.7161255-1.7631836,5.3572083-3.0966797,7.3121033-3.8122864c0.4020081-0.1470032,0.721405-0.2630005,0.9143066-0.3446045
			c0.6569824-0.2825012,1.1647034-0.756897,1.3921814-1.2909851c-3.4734802-0.7007141-5.8051758-1.8160095-5.9130859-1.8677063
			c-0.4042969-0.1964111-0.6615906-0.6053162-0.6639099-1.055603c-0.0022888-0.4501953,0.2550049-0.8613892,0.6570129-1.0589905
			c0.0849915-0.0447998,2.4075012-1.3278198,2.0054932-5.6144104c-0.6065063-6.5275879,0.565094-11.038208,3.4803162-13.4067078
			c2.3179016-1.8813782,5.7154846-1.7182922,5.8670959-1.7056885c0.0780945,0.0022888,2.3500977,0.1044922,4.2131042,1.5115967
			c0.493988,0.1137085,1.4151001,0.3721008,2.0583801,0.8362122c2.5682983,1.8538818,3.5561218,6.1484985,2.9403992,12.7645874
			c-0.1539001,1.6424866,0.0827332,3.0368958,0.7007141,4.1441956c0.3170166,0.5661926,0.1148071,1.2829895-0.4526062,1.6000061
			c-0.565094,0.3146973-1.2840881,0.1148987-1.6011047-0.4537048c-0.8545837-1.5299988-1.1876831-3.3837891-0.9902039-5.5087891
			c0.5191956-5.5662231-0.1813965-9.3451233-1.9732971-10.6385193c-0.2940063-0.2124939-1.013092-0.4191895-1.4082031-0.4926758
			c-0.1974792-0.0368042-0.3858948-0.124115-0.5397949-0.2539062c-1.2749939-1.0646973-3.0462036-1.158905-3.0644836-1.1600952
			c-0.0252991,0.0011902-2.6648254-0.1159973-4.2660217,1.183075c-2.2374878,1.8171082-3.1425781,5.7454224-2.6211853,11.3621216
			c0.3032837,3.2586975-0.6615906,5.3031921-1.6286926,6.5011902c1.137085,0.3996887,2.7819824,0.8879089,4.7207947,1.1991882
			c0.5950012,0.0953064,1.0222778,0.6260071,0.987793,1.2278137c-0.0343933,0.6340942-0.0986938,1.0820007-0.1975098,1.4082031
			c-0.3928833,1.2738953-1.403595,2.3421021-2.7774048,2.9313049c-0.2182007,0.0929871-0.5765991,0.2250977-1.0313721,0.3916931
			c-1.651825,0.6052856-5.0930176,1.8652954-6.4346008,3.2437134c-0.7580872,0.7798767-1.1600952,1.6677856-1.3691101,2.3638
			h8.2240906c0.6960144-0.1711121,1.4541016,0.3595886,1.4541016,1.1061707
			C437.9011841,305.3002014,437.3750916,305.8963013,436.7250061,305.8963013z"/>
	</g>
</g>
<g>
	<g>
		<path d="M124.2173004,399.640686H89.6267014c-0.3159027,0-0.6191025-0.1274719-0.8408051-0.3537903
			c-0.2205963-0.2250977-0.3422928-0.5306091-0.3353958-0.8475952c0.0046005-0.181488,0.1332016-4.4830933,3.5077972-7.9496155
			c2.6947021-2.7692871,8.5630035-4.918396,11.714798-6.0727844c0.6777039-0.2481079,1.2141037-0.4432983,1.5368042-0.5812073
			c1.3909988-0.5971985,2.4431992-1.6677856,2.8106995-2.8634949c0.2457962-0.79599,0.2641983-3.0896912,0.2159958-4.5748901
			c-0.4755936-0.6661987-1.6069946-2.2972107-2.1123962-3.4263c-0.5569992-1.2440186-0.8718033-2.5234985-1.030304-3.3171997
			c-0.9360962-0.4078064-2.0261002-1.4048157-2.569397-3.4689026c-0.6684952-2.5407104,0.0425034-4.1051025,0.8958969-4.9298096
			c-0.2985992-1.019989-0.7040939-2.8956909-0.8683929-5.9119873c-0.2848053-5.2021179,1.0291977-8.6307068,4.3957977-11.4642944
			c3.5411987-2.9818115,8.9017944-2.6637268,9.1337967-2.6453247c0.1240997,0.0046082,3.7192001,0.1665955,6.6080017,2.4201965
			c0.699501,0.1378174,2.3041,0.526001,3.3148956,1.3232117c3.5929031,2.8335876,3.7009048,5.8062134,3.4516068,10.3662109
			c-0.1641998,3.0162964-0.5697021,4.8919983-0.8683014,5.9119873c0.8533936,0.824707,1.5643921,2.3890991,0.8959045,4.9287109
			c-0.5433044,2.0651855-1.6334076,3.0621948-2.5695038,3.4700012c-0.1585007,0.7937012-0.4731979,2.0731812-1.0291061,3.315979
			c-0.5065994,1.1291199-1.6380005,2.761322-2.1134949,3.4275208c-0.0482025,1.4862976-0.0287018,3.7800903,0.2158966,4.5748901
			c0.303299,0.9844055,1.0855026,1.8803101,2.2042007,2.5234985c0.564003,0.3240051,0.7581024,1.0429993,0.4342041,1.6058044
			c-0.3262024,0.5617065-1.0441055,0.7557983-1.6057053,0.4342041c-1.636795-0.9407043-2.8026962-2.3156128-3.281601-3.8720093
			c-0.4594955-1.4943848-0.3342972-5.0241089-0.3043976-5.7167053c0.0102997-0.2330933,0.0895996-0.4582825,0.2274017-0.6465759
			c0.4272995-0.5812073,1.6344986-2.3053284,2.0766983-3.2920227c0.7386017-1.6504822,0.9775009-3.4285889,0.9797974-3.446991
			c0.0758057-0.5823059,0.5697021-1.0187988,1.156601-1.023407c-0.0195007-0.0022888,0.8534012-0.1262817,1.3347015-1.9526062
			c0.5893021-2.2409973-0.343399-2.7256775-0.4513931-2.7739868c-0.2906036-0.1286011-0.5421066-0.3800964-0.6524048-0.6776123
			c-0.1114044-0.2974854-0.1218033-0.6374817,0.0138016-0.9246826c0.0033951-0.0057068,0.7546005-1.7149048,0.9888992-5.9945984
			c0.2538986-4.6588135-0.0666046-6.4241943-2.5602036-8.3907166c-0.6042023-0.476593-1.9757004-0.8154907-2.5454025-0.9039001
			c-0.2101974-0.0332947-0.407692-0.1228943-0.5707932-0.2595825c-2.2984009-1.9194031-5.4445038-2.0767212-5.4766006-2.0779114
			c-0.0746994-0.0046082-4.6864014-0.2676086-7.4913025,2.0950928c-2.8106995,2.3662109-3.8099976,5.0402222-3.5642014,9.5370178
			c0.2342987,4.2796936,0.9855042,5.9888916,0.9935989,6.0050049c0.1367035,0.302002,0.141304,0.6523743,0.0102997,0.9555969
			c-0.1308975,0.3043823-0.3812943,0.5433044-0.6937943,0.6512756c-0.0677032,0.0333252-1.0004044,0.5180054-0.4112015,2.7601013
			c0.4813004,1.8252258,1.3543015,1.9492188,1.3909988,1.9538269c0.586998,0.0045776,1.0233994,0.4387817,1.1004028,1.019989
			c0.0022964,0.0184021,0.2469025,1.8102112,0.9809036,3.4493103c0.4421921,0.987793,1.6482925,2.7106934,2.075592,3.290802
			c0.1378021,0.1882935,0.2171021,0.4134827,0.2274017,0.6465759c0.0298996,0.6925964,0.155098,4.2223206-0.3043976,5.7167053
			c-0.5777054,1.8757019-2.0847015,3.4550171-4.1327057,4.3337097c-0.3491974,0.1493835-0.9257965,0.3617859-1.6539993,0.6282959
			c-2.7646942,1.013092-8.5169983,3.1196899-10.8383942,5.5042114c-1.7481995,1.7963867-2.4224014,3.8788757-2.6819992,5.1583862
			h33.2547989c0.6500931,0,1.1761932,0.5260925,1.1761932,1.1762085
			C125.3934937,399.1145935,124.8673935,399.640686,124.2173004,399.640686z"/>
		<path d="M139.5914917,407.1412048c-7.8266907,0-14.1945953-6.3680115-14.1945953-14.1946106
			c0-7.8266907,6.3679047-14.1945801,14.1945953-14.1945801c7.8278046,0,14.1958008,6.3678894,14.1958008,14.1945801
			C153.7872925,400.7731934,147.4192963,407.1412048,139.5914917,407.1412048z M139.5914917,381.1043091
			c-6.529892,0-11.8421936,5.3123779-11.8421936,11.8422852s5.3123016,11.8421936,11.8421936,11.8421936
			c6.5310059,0,11.843399-5.3122864,11.843399-11.8421936S146.1224976,381.1043091,139.5914917,381.1043091z"/>
		<path d="M138.1190033,399.7750854c-0.4101105,0-0.7914124-0.2135925-1.0051117-0.5662842l-3.4308929-5.6512146
			c-0.3377075-0.5547791-0.1607971-1.2783813,0.3950958-1.6148987c0.5559998-0.3365784,1.2796021-0.1607971,1.6150055,0.3951111
			l2.3890991,3.9328918l5.3892975-9.5531006c0.3170929-0.5662842,1.0348969-0.7706909,1.6024017-0.4467773
			c0.5661926,0.3192749,0.766098,1.0372009,0.4467926,1.6022949l-6.3771973,11.3035889
			c-0.2055969,0.3641052-0.5879974,0.5914917-1.0061035,0.5983887
			C138.1315918,399.7750854,138.1246948,399.7750854,138.1190033,399.7750854z"/>
	</g>
	<g>
		<g>
			<path d="M221.17659,398.8377991c-0.3008881,0-0.6017914-0.1148071-0.8315887-0.3446045
				c-0.4594116-0.4593811-0.4594116-1.2037048,0-1.663208l9.430191-9.4300842c0.4593964-0.4595032,1.2037048-0.4595032,1.663208,0
				c0.4593964,0.4594116,0.4593964,1.2037048,0,1.663208l-9.4302063,9.4300842
				C221.7784882,398.7229919,221.4776001,398.8377991,221.17659,398.8377991z"/>
			<path d="M230.6067963,398.8377991c-0.3009033,0-0.6018982-0.1148071-0.831604-0.3446045l-9.430191-9.4300842
				c-0.4594116-0.4595032-0.4594116-1.2037964,0-1.663208c0.4594879-0.4595032,1.2037964-0.4595032,1.6631927,0l9.4302063,9.4300842
				c0.4593964,0.4595032,0.4593964,1.2038269,0,1.663208C231.2086945,398.7229919,230.9076996,398.8377991,230.6067963,398.8377991z
				"/>
		</g>
		<path d="M210.5175018,399.640686h-34.5906067c-0.3159027,0-0.6190948-0.1274719-0.8408051-0.3537903
			c-0.2205963-0.2250977-0.3423004-0.5306091-0.3353882-0.8475952c0.0045929-0.181488,0.133194-4.4830933,3.5078888-7.9496155
			c2.6946106-2.7692871,8.562912-4.918396,11.7147064-6.0727844c0.6777039-0.2481079,1.2140961-0.4432983,1.5368958-0.5812073
			c1.3908997-0.5971985,2.4431-1.6677856,2.8106079-2.8634949c0.2457886-0.79599,0.2642059-3.0896912,0.2159882-4.5748901
			c-0.4756012-0.6661987-1.6068878-2.2972107-2.1122894-3.4263c-0.5570984-1.2440186-0.8718109-2.5234985-1.0304108-3.3171997
			c-0.9360962-0.4078064-2.0260925-1.4048157-2.569397-3.4689026c-0.6685028-2.5407104,0.042511-4.1051025,0.8959045-4.9298096
			c-0.2985992-1.019989-0.7041016-2.8956909-0.8683014-5.9119873c-0.2848969-5.2021179,1.0290985-8.6307068,4.3957062-11.4642944
			c3.5401001-2.9818115,8.9051971-2.6637268,9.1337891-2.6453247c0.1240997,0.0046082,3.7192078,0.1665955,6.6080017,2.4201965
			c0.6995087,0.1378174,2.3041077,0.526001,3.3148956,1.3232117c3.5929108,2.8335876,3.7009125,5.8062134,3.4516144,10.3662109
			c-0.1641998,3.0162964-0.5697021,4.8919983-0.8683014,5.9119873c0.8533936,0.824707,1.5643921,2.3890991,0.8958893,4.9287109
			c-0.5432892,2.0651855-1.6333008,3.0621948-2.5694885,3.4700012c-0.1585083,0.7937012-0.4732056,2.0731812-1.0291138,3.315979
			c-0.5065918,1.1291199-1.6379852,2.761322-2.1134949,3.4275208c-0.0482025,1.4862976-0.0287018,3.7800903,0.2160034,4.5748901
			c0.3032074,0.9844055,1.0854034,1.8803101,2.2042084,2.5234985c0.5638885,0.3240051,0.7579956,1.0429993,0.4340973,1.6058044
			c-0.3262024,0.5617065-1.0429077,0.7557983-1.6057129,0.4342041c-1.636795-0.9407043-2.8026886-2.3156128-3.281601-3.8720093
			c-0.4594879-1.4943848-0.3342896-5.0241089-0.3043976-5.7167053c0.0102997-0.2330933,0.0896149-0.4582825,0.2274017-0.6465759
			c0.4273071-0.5812073,1.6345062-2.3053284,2.0767059-3.2920227c0.7386017-1.6504822,0.9775085-3.4285889,0.9797974-3.446991
			c0.0758057-0.5823059,0.5697021-1.0187988,1.156601-1.023407c-0.0195007-0.0022888,0.8535004-0.1262817,1.3347015-1.9526062
			c0.5892944-2.2409973-0.343399-2.7256775-0.4514008-2.7739868c-0.2906036-0.1286011-0.542099-0.3800964-0.6524048-0.6776123
			c-0.1114044-0.2974854-0.1217041-0.6374817,0.0138092-0.9246826c0.0034027-0.0057068,0.7545929-1.7149048,0.9888916-5.9945984
			c0.2539062-4.6588135-0.0666046-6.4241943-2.5601959-8.3907166c-0.6042023-0.476593-1.9756012-0.8154907-2.5453949-0.9039001
			c-0.2102051-0.0332947-0.4077148-0.1228943-0.5708008-0.2595825c-2.2984009-1.9194031-5.4445038-2.0767212-5.4766083-2.0779114
			c-0.0746918-0.0046082-4.6864014-0.2676086-7.4913025,2.0950928c-2.8106995,2.3662109-3.8099976,5.0402222-3.5641937,9.5370178
			c0.2344055,4.2796936,0.9855042,5.9888916,0.9935913,6.0050049c0.1367035,0.302002,0.1413116,0.6523743,0.0102997,0.9555969
			c-0.1308899,0.3043823-0.3812866,0.5433044-0.6936951,0.6512756c-0.0677948,0.0333252-1.0005035,0.5180054-0.4111938,2.7601013
			c0.4812012,1.8252258,1.3542023,1.9492188,1.3908997,1.9538269c0.5869904,0.0045776,1.0233917,0.4387817,1.1004028,1.019989
			c0.0022888,0.0184021,0.246994,1.8102112,0.980896,3.4493103c0.4421997,0.987793,1.6483002,2.7106934,2.075592,3.290802
			c0.1378021,0.1882935,0.2171021,0.4134827,0.2274017,0.6465759c0.0299072,0.6925964,0.1551056,4.2223206-0.3043976,5.7167053
			c-0.5776978,1.8757019-2.0847015,3.4550171-4.1327057,4.3337097c-0.3491974,0.1493835-0.9257965,0.3617859-1.6539917,0.6282959
			c-2.7646942,1.013092-8.5169983,3.1196899-10.8383942,5.5042114c-1.7481995,1.7963867-2.4224091,3.8788757-2.6820068,5.1583862
			h33.2548065c0.6500854,0,1.1761932,0.5260925,1.1761932,1.1762085
			C211.6936951,399.1145935,211.1675873,399.640686,210.5175018,399.640686z"/>
		<path d="M225.8916931,407.1412048c-7.8266907,0-14.1945953-6.3680115-14.1945953-14.1946106
			c0-7.8266907,6.3679047-14.1945801,14.1945953-14.1945801c7.8278046,0,14.1958008,6.3678894,14.1958008,14.1945801
			C240.0874939,400.7731934,233.7194977,407.1412048,225.8916931,407.1412048z M225.8916931,381.1043091
			c-6.529892,0-11.8421936,5.3123779-11.8421936,11.8422852s5.3123016,11.8421936,11.8421936,11.8421936
			c6.5310974,0,11.843399-5.3122864,11.843399-11.8421936S232.4227905,381.1043091,225.8916931,381.1043091z"/>
	</g>
	<g>
		<path d="M313.7196045,398.2325134c-0.4112244,0-0.7926025-0.213623-1.0062256-0.5663147l-2.8990784-4.7770996
			c-0.3354187-0.5546875-0.1585083-1.2784119,0.3950806-1.6148987c0.5559082-0.3342896,1.2773132-0.1619873,1.6173096,0.3951111
			l1.8561096,3.0587769l4.4037781-7.8036804c0.3194275-0.5686035,1.0384216-0.7673035,1.6035156-0.4468079
			c0.565094,0.3193054,0.7649841,1.0372009,0.4457092,1.6022949l-5.3916016,9.5541992
			c-0.2044983,0.3641052-0.5881042,0.5914917-1.0061951,0.5984192
			C313.7310791,398.2325134,313.7265015,398.2325134,313.7196045,398.2325134z"/>
		<path d="M303.0282898,399.640686h-41.1274109c-0.3158875,0-0.6190796-0.1274719-0.8407898-0.3537903
			c-0.2204895-0.2250977-0.3422852-0.5317993-0.3353882-0.8475952c0.0045776-0.181488,0.1343994-4.4830933,3.5090027-7.9496155
			c2.6947021-2.7692871,8.5617981-4.918396,11.7135925-6.0727844c0.6777039-0.2481079,1.2141113-0.4432983,1.5368958-0.5812073
			c1.3908997-0.5971985,2.4418945-1.6677856,2.8106079-2.8634949c0.2457886-0.79599,0.2641907-3.0896912,0.2160034-4.5748901
			c-0.4756165-0.6661987-1.6069031-2.2972107-2.1123047-3.4263c-0.5570984-1.2440186-0.8717957-2.5234985-1.030304-3.3171997
			c-0.9349976-0.4078064-2.025116-1.4048157-2.5683899-3.4689026c-0.6685181-2.5407104,0.0413818-4.1051025,0.8947754-4.9298096
			c-0.298584-1.019989-0.7041016-2.8956909-0.8682861-5.9119873c-0.2836914-5.2032166,1.030304-8.6318054,4.3969116-11.4642944
			c3.5388794-2.9818115,8.9040833-2.6637268,9.1337891-2.6453247c0.1239929,0.0046082,3.7180176,0.1665955,6.6068115,2.4201965
			c0.6994934,0.1378174,2.3040771,0.526001,3.3148804,1.3232117c3.5941162,2.832489,3.7019958,5.8062134,3.4539185,10.3662109
			c-0.1654053,3.0151978-0.5720215,4.8919983-0.8706055,5.9119873c0.8544922,0.8235168,1.5643921,2.3890991,0.8959045,4.9298096
			c-0.5422058,2.0640869-1.6333008,3.0610962-2.569519,3.4689026c-0.1584778,0.7937012-0.4719849,2.0731812-1.030304,3.3171997
			c-0.5054016,1.1278992-1.6367798,2.7601013-2.1122742,3.4263c-0.0471191,1.4862976-0.028717,3.781189,0.2159729,4.5748901
			c0.3675232,1.1957092,1.4197083,2.2662964,2.8117981,2.8634949c0.2998047,0.1286926,0.7947998,0.3102112,1.4082031,0.5353088
			c0.6099243,0.2228088,0.9223022,0.8993835,0.6995239,1.5093079c-0.2228088,0.6098938-0.8948059,0.9268799-1.5104065,0.6983032
			c-0.6639099-0.2434998-1.1981201-0.4410095-1.524292-0.5812073c-2.0491028-0.8786926-3.5561218-2.4580078-4.1338196-4.3337097
			c-0.4582825-1.4943848-0.3342896-5.0241089-0.3043823-5.7167053c0.0102844-0.2330933,0.0895996-0.4582825,0.2273865-0.6465759
			c0.4273071-0.5812073,1.634491-2.3053284,2.0766907-3.2920227c0.7340088-1.6378784,0.9775085-3.4296875,0.9797974-3.446991
			c0.0769043-0.5812073,0.5697327-1.0187988,1.1566162-1.023407c-0.0195007-0.0022888,0.8534851-0.1262817,1.3346863-1.9526062
			c0.589325-2.2409973-0.3433838-2.7256775-0.4513855-2.7739868c-0.2905884-0.1286011-0.5421143-0.3789978-0.6524048-0.6776123
			c-0.1113892-0.2974854-0.1217041-0.6374817,0.0137939-0.9246826c0.003418-0.0057068,0.7546082-1.7149048,0.9901123-5.9945984
			c0.2537842-4.6588135-0.0666199-6.4241943-2.5614014-8.3907166c-0.6042175-0.476593-1.9756165-0.8154907-2.5454102-0.9039001
			c-0.210083-0.0332947-0.4076843-0.1228943-0.5708008-0.2595825c-2.3190918-1.936615-5.440979-2.0767212-5.4719849-2.0779114
			c-0.0769958-0.0010986-4.6910095-0.2663879-7.4959106,2.0950928c-2.8095093,2.3650208-3.8088074,5.0390015-3.5641785,9.5370178
			c0.234375,4.2796936,0.9855957,5.9888916,0.9935913,6.0050049c0.1366882,0.302002,0.1412964,0.6523743,0.0102844,0.9555969
			c-0.1308899,0.3043823-0.3812866,0.5433044-0.6936951,0.6512756c-0.0678101,0.0333252-0.9992981,0.5169067-0.4100952,2.7590027
			c0.4812927,1.8263245,1.354187,1.9503174,1.3909912,1.9549255c0.5869141,0.0045776,1.023407,0.4398804,1.1004028,1.0210876
			c0.0022888,0.0173035,0.2457886,1.8091125,0.9797058,3.4482117c0.4421997,0.987793,1.6482849,2.7106934,2.075592,3.290802
			c0.1378174,0.1882935,0.2171021,0.4134827,0.227417,0.6465759c0.0298767,0.6925964,0.1550903,4.2223206-0.3044128,5.7167053
			c-0.5776978,1.8757019-2.0846863,3.4562073-4.1339111,4.3337097c-0.3468018,0.1493835-0.9245911,0.3617859-1.6528015,0.6282959
			c-2.764679,1.013092-8.5169983,3.1196899-10.8371887,5.5042114c-1.7481995,1.7963867-2.423584,3.8788757-2.6820068,5.1583862
			h39.7904053c0.650116,0,1.1761169,0.5260925,1.1761169,1.1762085
			C304.2044067,399.1145935,303.6784058,399.640686,303.0282898,399.640686z"/>
		<path d="M314.4523926,407.1412048c-0.1997986,0-0.4020081-0.0516968-0.5812073-0.1539001
			c-0.2641907-0.1505127-6.5011902-3.7514038-9.232605-10.1653137c-2.6486816-6.2220764-2.4487915-13.1791992-2.4395752-13.4720764
			c0.0113831-0.3148193,0.149292-0.6122131,0.3789978-0.8259277c0.2319946-0.2124939,0.5535889-0.3169861,0.8545837-0.3100891
			c0.0298157,0.0046082,2.9266968,0.1297913,5.7821045-0.8154907c2.4419861-0.8074951,4.495697-2.3833923,4.5163879-2.3995056
			c0.4273071-0.3284912,1.0154114-0.327301,1.442627-0.0010986c0.0183716,0.0159912,2.0743713,1.5931091,4.5163879,2.4006042
			c2.8692932,0.9509888,5.75,0.8211975,5.7821045,0.8154907c0.3101807-0.0091858,0.6249084,0.0953064,0.8545837,0.3089905
			c0.234314,0.213623,0.3699036,0.5111084,0.3814087,0.8270264c0.0090942,0.2928772,0.2090149,7.25-2.4396973,13.4720764
			c-2.7314148,6.4139099-8.9707031,10.0158997-9.2348938,10.1653137
			C314.8544006,407.0895081,314.6522827,407.1412048,314.4523926,407.1412048z M304.558197,384.5604858
			c0.0574951,2.1560059,0.4042969,7.0169067,2.2443848,11.3403015c1.9665222,4.6152039,6.1176147,7.6693115,7.6498108,8.6767273
			c1.5299988-1.0108032,5.6925964-4.0788269,7.6520996-8.6767273c1.8400879-4.3244934,2.1870117-9.1842957,2.2443848-11.3403015
			c-1.2612-0.0470886-3.3148804-0.2399902-5.3984985-0.9291992c-1.9204712-0.6351929-3.5905762-1.6493835-4.4979858-2.260498
			c-0.9073792,0.6111145-2.5751953,1.6253052-4.4979858,2.260498
			C307.8707886,384.3204956,305.8170776,384.5133972,304.558197,384.5604858z"/>
	</g>
	<g>
		<g>
			<path d="M397.5134888,396.6325073c-0.3009033,0-0.6018982-0.1148987-0.831604-0.3446045
				c-0.4593811-0.4595032-0.4593811-1.2037964,0-1.663208l6.4782104-6.4781799c0.4595032-0.4595032,1.2037964-0.4595032,1.663208,0
				c0.4594727,0.4593811,0.4594727,1.2036743,0,1.6631775l-6.4782104,6.4782104
				C398.115387,396.5176086,397.8144836,396.6325073,397.5134888,396.6325073z"/>
			<path d="M403.9916992,396.6325073c-0.3009033,0-0.6018982-0.1148987-0.831604-0.3446045l-6.4782104-6.4782104
				c-0.4593811-0.4595032-0.4593811-1.2037964,0-1.6631775c0.4595032-0.4595032,1.2037964-0.4595032,1.663208,0l6.4782104,6.4781799
				c0.4594727,0.4594116,0.4594727,1.2037048,0,1.663208C404.5935974,396.5176086,404.2926941,396.6325073,403.9916992,396.6325073z
				"/>
		</g>
		<g>
			<path d="M389.3284912,399.640686h-41.1274109c-0.3169861,0-0.6203003-0.1274719-0.8407898-0.3537903
				c-0.2204895-0.2250977-0.3422852-0.5317993-0.3353882-0.8475952c0.0045776-0.181488,0.1331787-4.4830933,3.5079041-7.9496155
				c2.6968994-2.7692871,8.5640869-4.918396,11.7158813-6.0727844c0.675415-0.2481079,1.2128906-0.4432983,1.5345154-0.5812073
				c1.3943787-0.5971985,2.4442749-1.6677856,2.8140869-2.8634949c0.2434998-0.7937012,0.2619019-3.0885925,0.2137146-4.5748901
				c-0.4755249-0.6661987-1.6058044-2.2984009-2.1112061-3.4275208c-0.558197-1.2427979-0.8728943-2.5222778-1.0314026-3.315979
				c-0.9349976-0.4078064-2.0262146-1.4048157-2.5682983-3.4700012c-0.6685181-2.5396118,0.0412903-4.1040039,0.8959045-4.9287109
				c-0.3009949-1.019989-0.7053223-2.8967896-0.870697-5.9119873c-0.2825012-5.2032166,1.0314941-8.6318054,4.3968811-11.4642944
				c3.5354919-2.9784241,8.901825-2.6556091,9.1338196-2.6453247c0.1240845,0.0046082,3.7192993,0.1665955,6.6091919,2.4201965
				c0.6983032,0.1378174,2.3041077,0.526001,3.3148804,1.3232117c3.592926,2.8347168,3.7008057,5.8074036,3.4504089,10.3662109
				c-0.1630859,3.0151978-0.5697021,4.8919983-0.8682861,5.9119873c0.8545837,0.824707,1.5643921,2.3890991,0.895874,4.9298096
				c-0.5443726,2.0640869-1.6332703,3.0610962-2.5682983,3.4689026c-0.1607666,0.7924805-0.473175,2.0731812-1.0314941,3.315979
				c-0.5054016,1.1291199-1.6378784,2.761322-2.1134033,3.4275208c-0.04599,1.4862976-0.0275879,3.781189,0.2159119,4.5748901
				c0.3699036,1.1957092,1.4197083,2.2662964,2.8117981,2.8634949c0.3009949,0.1286926,0.7948914,0.3102112,1.4082031,0.5353088
				c0.611084,0.2228088,0.9234924,0.8993835,0.7006836,1.5093079c-0.2227783,0.6098938-0.902771,0.9245911-1.5092773,0.6983032
				c-0.6639099-0.2434998-1.1990967-0.4410095-1.5252991-0.5800171c-2.0491943-0.8798828-3.5562134-2.459198-4.1328125-4.3348999
				c-0.4594116-1.4943848-0.3353882-5.0241089-0.3078003-5.7154846c0.0115051-0.234314,0.0895996-0.4595032,0.2297058-0.6477966
				c0.4273071-0.5812073,1.6357117-2.3053284,2.0766907-3.290802c0.7373962-1.6517029,0.9763184-3.4298096,0.9786072-3.4482117
				c0.0758972-0.5823059,0.5697937-1.0187988,1.1578064-1.023407c-0.0205994-0.0022888,0.8522949-0.1262817,1.3346863-1.9526062
				c0.5903931-2.2409973-0.3421936-2.7256775-0.4501953-2.7739868c-0.2918091-0.1286011-0.5444946-0.3800964-0.6546936-0.6776123
				c-0.1102905-0.2974854-0.1217957-0.6387024,0.0161133-0.9246826c0.0022888-0.006897,0.7556763-1.7149048,0.987793-5.9934998
				c0.2550049-4.6588135-0.0644226-6.4241943-2.5592041-8.3918152c-0.5765991-0.4548035-1.8699036-0.79599-2.5476074-0.9050903
				c-0.2089844-0.0332947-0.4065857-0.1228943-0.5697021-0.2583923c-2.2994995-1.9194031-5.444397-2.0767212-5.476593-2.0779114
				c-0.0735168-0.0057068-4.6910095-0.2640991-7.4913025,2.0950928c-2.8095093,2.3650208-3.8088074,5.0390015-3.5653076,9.5381165
				c0.234314,4.278595,0.987793,5.9866028,0.9947205,6.0039062c0.1377869,0.3008728,0.142395,0.6511841,0.0114746,0.9555969
				c-0.1309814,0.3043823-0.3813782,0.5433044-0.6937866,0.6512756c-0.0689087,0.0333252-1.0015869,0.5180054-0.4111938,2.7590027
				c0.4801025,1.8263245,1.3554077,1.9503174,1.3920898,1.9549255c0.5858154,0.0045776,1.0223083,0.4398804,1.1004028,1.0210876
				c0.0022888,0.0184021,0.2434998,1.8091125,0.9786072,3.446991c0.4433899,0.9890137,1.6471863,2.7119141,2.0744019,3.2920227
				c0.1401978,0.1882935,0.2182922,0.4134827,0.2297974,0.6465759c0.0297852,0.6925964,0.1539001,4.2223206-0.305603,5.7167053
				c-0.5765991,1.8757019-2.0836182,3.4550171-4.1326904,4.3337097c-0.3492126,0.1493835-0.9258118,0.3617859-1.6540222,0.6282959
				c-2.7635803,1.013092-8.5157776,3.1196899-10.8383789,5.5042114c-1.7321167,1.7803955-2.4120178,3.8730774-2.6762085,5.1583862
				h39.7857971c0.6500854,0,1.1762085,0.5260925,1.1762085,1.1762085
				C390.5046997,399.1145935,389.9785767,399.640686,389.3284912,399.640686z"/>
			<path d="M400.752594,407.1412048c-0.1997986,0-0.4020081-0.0516968-0.5812073-0.1539001
				c-0.2641907-0.1505127-6.5011902-3.7514038-9.232605-10.1653137c-2.6486816-6.2220764-2.4487915-13.1791992-2.4396057-13.4720764
				c0.0115051-0.3148193,0.1493225-0.6122131,0.3790283-0.8259277c0.2319946-0.2124939,0.5467834-0.3169861,0.8545837-0.3100891
				c0.0299072,0.0046082,2.9266968,0.1297913,5.7821045-0.8154907c2.4558105-0.8132935,4.495697-2.3833923,4.5163879-2.3995056
				c0.4227295-0.3284912,1.0154114-0.327301,1.4427185-0.0010986c0.01828,0.0159912,2.0744019,1.5931091,4.5162964,2.4006042
				c2.871582,0.9509888,5.7477112,0.8211975,5.782196,0.8154907c0.3124084-0.0091858,0.6224976,0.0953064,0.8545227,0.3089905
				c0.2342834,0.213623,0.369873,0.5111084,0.3813782,0.8270264c0.0091858,0.2928772,0.2089844,7.25-2.4396973,13.4720764
				c-2.7314148,6.4139099-8.9707031,10.0158997-9.2348938,10.1653137
				C401.1546021,407.0895081,400.9524841,407.1412048,400.752594,407.1412048z M390.8583984,384.5604858
				c0.0574951,2.1560059,0.4042969,7.0169067,2.2443848,11.3403015c1.9664917,4.6152039,6.1176147,7.6693115,7.6498108,8.6767273
				c1.5299988-1.0108032,5.6925964-4.0788269,7.6520996-8.6767273c1.8400879-4.3244934,2.1869812-9.1842957,2.2443848-11.3403015
				c-1.2612-0.0470886-3.3148804-0.2399902-5.3984985-0.9291992c-1.9205017-0.6351929-3.5905762-1.6493835-4.4979858-2.260498
				c-0.9074097,0.6111145-2.5775146,1.6253052-4.4980164,2.260498
				C394.1732788,384.3204956,392.1172791,384.5133972,390.8583984,384.5604858z"/>
		</g>
	</g>
	<g>
		<path d="M492.6970825,399.640686h-52.7559814c-0.3170166,0-0.6202087-0.1274719-0.8406982-0.3537903
			c-0.2206116-0.2250977-0.3423157-0.5317993-0.3353882-0.8475952c0.0045776-0.181488,0.1331787-4.4830933,3.507782-7.9496155
			c2.696991-2.7692871,8.5640869-4.918396,11.7158813-6.0727844c0.675415-0.2481079,1.2130127-0.4432983,1.5346069-0.5812073
			c1.3944092-0.5971985,2.4442139-1.6677856,2.8141174-2.8634949c0.2434998-0.7937012,0.2618713-3.0885925,0.2135925-4.5748901
			c-0.4754944-0.6661987-1.6057129-2.2984009-2.1111145-3.4275208c-0.558197-1.2427979-0.870697-2.5234985-1.0314941-3.315979
			c-0.934906-0.4078064-2.0238037-1.4048157-2.5682983-3.4700012c-0.6684875-2.540802,0.0414124-4.1051941,0.8959045-4.9287109
			c-0.2986145-1.019989-0.7052002-2.8967896-0.8683167-5.9130859c-0.2848816-5.2010193,1.0291138-8.6296082,4.3946228-11.4631958
			c3.539978-2.9818115,8.9064026-2.6637268,9.1360779-2.6453247c0.1240234,0.0046082,3.7169189,0.1665955,6.6068115,2.4201965
			c0.6983948,0.1378174,2.3041992,0.526001,3.3150024,1.3232117c3.592804,2.8347168,3.7008057,5.8074036,3.4504089,10.3662109
			c-0.1631165,3.0151978-0.5674133,4.8919983-0.8684082,5.9119873c0.8545837,0.8235168,1.5644836,2.3879089,0.8959961,4.9287109
			c-0.5421753,2.0651855-1.6333923,3.0621948-2.5682983,3.4700012c-0.1607971,0.7937012-0.4755859,2.0731812-1.0314941,3.315979
			c-0.5054016,1.1291199-1.6356201,2.761322-2.1112061,3.4275208c-0.0481873,1.4862976-0.0298157,3.781189,0.2136841,4.5748901
			c0.369812,1.1957092,1.4197083,2.2662964,2.8141174,2.8634949c0.3215942,0.1379089,0.8591919,0.3330994,1.5346069,0.5812073
			c3.1517944,1.1543884,9.0188904,3.3034973,11.7157898,6.0727844l0,0c3.3746948,3.4665222,3.5032959,7.7681274,3.5079041,7.9496155
			c0.006897,0.3157959-0.1148071,0.6224976-0.3354187,0.8475952
			C493.3173828,399.5132141,493.0141907,399.640686,492.6970825,399.640686z M441.2826843,397.2882996h50.0729065
			c-0.2641907-1.2853088-0.9442139-3.3779907-2.6763-5.1583862c-2.3225098-2.3845215-8.0747986-4.4911194-10.8384094-5.5042114
			c-0.7281799-0.26651-1.3047791-0.4789124-1.6539917-0.6282959c-2.0491028-0.8786926-3.5560913-2.4580078-4.1326904-4.3337097
			c-0.4595032-1.4943848-0.3354187-5.0241089-0.3055115-5.7167053c0.0114136-0.2330933,0.0895081-0.4582825,0.2297058-0.6465759
			c0.4273071-0.5812073,1.6333008-2.3053284,2.0744019-3.290802c0.7373962-1.6517029,0.9762878-3.4298096,0.9786072-3.4482117
			c0.0757751-0.5823059,0.5696716-1.0187988,1.1577759-1.023407c-0.0206909-0.0022888,0.8546143-0.1262817,1.3347168-1.9526062
			c0.604187-2.2973022-0.3997192-2.7555847-0.4111938-2.7590027c-0.3170166-0.1091003-0.5720215-0.3480835-0.7007141-0.6569824
			c-0.1308899-0.3089905-0.1217041-0.6582031,0.0230103-0.9602966c0.0022888-0.006897,0.7557983-1.7149048,0.987793-5.9934998
			c0.2550049-4.6588135-0.0643005-6.4241943-2.5591125-8.3918152c-0.5765991-0.4548035-1.8699036-0.79599-2.5475769-0.9050903
			c-0.2091064-0.0332947-0.4066162-0.1228943-0.5697021-0.2583923c-2.2996216-1.9194031-5.4421997-2.0767212-5.4743042-2.0779114
			c-0.0758972-0.0057068-4.6932983-0.2640991-7.4935913,2.0950928c-2.8095093,2.3662109-3.8088074,5.0390015-3.5630188,9.5370178
			c0.2319946,4.2796936,0.9855042,5.9877014,0.9924011,6.0050049c0.1378174,0.3008728,0.142395,0.6511841,0.0115051,0.9555969
			c-0.131012,0.3043823-0.3813782,0.5433044-0.6938171,0.6512756c-0.0688782,0.0333252-1.0015869,0.5169067-0.4111938,2.7578125
			c0.4824219,1.8262939,1.3554077,1.9515076,1.3921204,1.9561157c0.5857849,0.0045776,1.0222778,0.4387817,1.1004028,1.019989
			c0.0022888,0.0184021,0.2457886,1.8102112,0.9785767,3.4493103c0.4434204,0.987793,1.6470947,2.7106934,2.0744019,3.290802
			c0.1401062,0.1882935,0.2182007,0.4134827,0.2297058,0.6465759c0.0299072,0.6925964,0.1539001,4.2223206-0.3055115,5.7167053
			c-0.5765991,1.8768005-2.0835876,3.4562073-4.1326904,4.3337097c-0.3491821,0.1493835-0.9258118,0.3617859-1.6539917,0.6282959
			c-2.7636108,1.013092-8.5158997,3.1196899-10.8383789,5.5042114
			C442.2268982,393.9103088,441.546875,396.0029907,441.2826843,397.2882996z"/>
		<path d="M466.320282,384.1297913c-0.877594,0-1.7550964-0.156189-2.5912781-0.4664001l-4.5761108-1.7044983
			c-0.6087036-0.2273865-0.9165955-0.9039917-0.6914062-1.5126953c0.2273865-0.6087952,0.9005127-0.9143066,1.5137939-0.692688
			l4.5761108,1.7045898c1.137207,0.4249878,2.3937073,0.4249878,3.5354919,0l4.5783997-1.7045898
			c0.6109924-0.2228088,1.2864075,0.0838928,1.5137939,0.692688c0.2252197,0.6087036-0.0827026,1.2853088-0.6913757,1.5126953
			l-4.5783997,1.7044983C468.0730896,383.9736023,467.1954956,384.1297913,466.320282,384.1297913z"/>
		<path d="M461.8865967,390.9502869c-0.3789978,0-0.7397156-0.1837769-0.9602051-0.4961853l-4.1832886-5.9085083
			c-0.3744202-0.5307007-0.2504272-1.2645874,0.2802734-1.6401978c0.5283203-0.3721924,1.2635193-0.2539062,1.6401978,0.2802124
			l3.0691223,4.3336792l2.6142883-5.0343018c0.3009033-0.5765991,1.0152893-0.8005981,1.5851135-0.5019836
			c0.5765991,0.2998047,0.8016968,1.009613,0.5007935,1.5863037l-3.5032959,6.7468872
			c-0.1884155,0.3641052-0.5537109,0.6031189-0.9625854,0.6318054
			C461.9394836,390.9490967,461.9141846,390.9502869,461.8865967,390.9502869z"/>
		<path d="M470.6803894,390.9502869c-0.0274963,0-0.0527954-0.0011902-0.0803833-0.0022888
			c-0.408905-0.0286865-0.7741089-0.2677002-0.9625244-0.6318054l-3.5010071-6.7468872
			c-0.3008728-0.5766907-0.0757751-1.286499,0.500824-1.5863037c0.5765991-0.2986145,1.286499-0.0746155,1.585083,0.5019836
			l2.6143188,5.0355225l3.0690918-4.3348999c0.3789978-0.5317993,1.1141052-0.6512146,1.6401978-0.2802124
			c0.5306091,0.3756104,0.6546936,1.1094971,0.2802124,1.6401978l-4.1855164,5.9085083
			C471.4178772,390.76651,471.0594788,390.9502869,470.6803894,390.9502869z"/>
		<path d="M467.6618958,389.6637878h-2.6855164c-0.2250977,0-0.4411011-0.0860901-0.604187-0.2399902l-1.4701843-1.3840942
			c-0.3561096-0.3342896-0.3721313-0.8925171-0.0390015-1.2463074c0.3375854-0.3548889,0.8935852-0.3710022,1.2473755-0.0379028
			l1.21521,1.1440125h1.9870911l1.21521-1.1440125c0.3561096-0.334198,0.9096985-0.3180847,1.247406,0.0379028
			c0.3330994,0.3537903,0.3170776,0.9120178-0.0390015,1.2463074l-1.4702148,1.3840942
			C468.1028748,389.5776978,467.8869934,389.6637878,467.6618958,389.6637878z"/>
		<path d="M464.2413025,399.3467102c-0.0207214,0-0.0437012-0.0012207-0.0666199-0.0023193
			c-0.4869995-0.0368042-0.8500061-0.4606018-0.8132019-0.9465027l0.7351074-9.6828003
			c0.0344238-0.4835815,0.4042969-0.8557739,0.9464111-0.8132935c0.4869995,0.0368042,0.8500061,0.4606018,0.8132935,0.9465027
			l-0.735199,9.6828003C465.0867004,398.993988,464.6983948,399.3467102,464.2413025,399.3467102z"/>
		<path d="M468.3970032,399.3467102c-0.4572144,0-0.8454285-0.3527222-0.8798218-0.8156128l-0.7351685-9.6828003
			c-0.0367126-0.4859009,0.3261719-0.9096985,0.8132629-0.9465027c0.519104-0.0390015,0.909729,0.3297119,0.9464111,0.8132935
			l0.7351074,9.6828003c0.0368042,0.4859009-0.3262024,0.9096985-0.8132019,0.9465027
			C468.4405823,399.3454895,468.4176941,399.3467102,468.3970032,399.3467102z"/>
	</g>
</g>
<g>
	<path d="M144.320694,485.0539856c-3.0908051-3.1753845-11.0930023-5.631073-12.8712921-6.39328
		c-1.7781982-0.7621155-3.0149078-2.1138916-3.4718018-3.5988159c-0.4234009-1.3760986-0.2541046-5.3201904-0.2541046-5.3201904
		s1.6107941-2.1882935,2.2017059-3.5076904c0.8185883-1.8276062,1.0726013-3.7752991,1.0726013-3.7752991
		s1.7217865-0.0140991,2.4627991-2.8297119c0.9093933-3.4559937-1.1643982-4.1704102-1.1643982-4.1704102
		s0.8468018-1.7782898,1.1008911-6.4356995c0.2539978-4.6573792,0-7.0072021-3.0061951-9.3781738
		c-1.0407104-0.8209229-3.0908051-1.143219-3.0908051-1.143219c-2.6531982-2.21521-6.1815948-2.349884-6.1815948-2.349884
		s-5.0807037-0.3387146-8.2985992,2.3710938c-3.217804,2.7096863-4.233902,5.842804-3.9799042,10.5001831
		c0.2540054,4.6574097,1.1007996,6.4356995,1.1007996,6.4356995s-2.0737991,0.7144165-1.164299,4.1704102
		c0.7408981,2.8156128,2.4627991,2.8297119,2.4627991,2.8297119s0.2539978,1.9476929,1.0726013,3.7752991
		c0.5908966,1.319397,2.2015991,3.5076904,2.2015991,3.5076904s0.1694031,3.9440918-0.2539978,5.3201904
		c-0.4569016,1.4849243-1.6936035,2.8367004-3.4719009,3.5988159c-1.7781982,0.762207-9.7804031,3.2178955-12.8712006,6.39328
		c-3.0907974,3.1755066-3.175499,7.1555176-3.175499,7.1555176h26.3776016h26.3777008
		C147.4962006,492.2095032,147.411499,488.2294922,144.320694,485.0539856z"/>
	<path d="M230.6210022,485.0539856c-3.0910034-3.1753845-11.0932007-5.6312866-12.8714142-6.3933716
		c-1.7782898-0.7620239-3.0149994-2.1139221-3.4718933-3.5988159c-0.1326904-0.4311829-0.2028961-1.1206055-0.242691-1.8555908
		c6.5245972-1.0479126,11.0491943-3.2394104,11.0491943-3.2394104s-5.1623993-2.533783-4.3619995-11.123291
		c0.6526031-7.0024109,0.5249939-15.9109192-4.0312042-19.1989136c-1.0749054-0.7756958-3.0906982-1.1431885-3.0906982-1.1431885
		c-2.6532898-2.21521-6.1815948-2.3499146-6.1815948-2.3499146s-5.0328064-0.2807922-8.2985992,2.3710022
		c-3.4054108,2.7651062-6.1011047,8.5581055-5.0048065,20.3210144c0.8003998,8.5895081-4.3619995,11.123291-4.3619995,11.123291
		s4.5245972,2.1914978,11.0491028,3.2394104c-0.0398102,0.7349854-0.1100006,1.424408-0.2425995,1.8555908
		c-0.4570007,1.4848938-1.6937103,2.836792-3.4719086,3.5988159c-1.7782898,0.762085-9.7805023,3.2179871-12.8714905,6.3933716
		c-3.0906982,3.175415-3.1753998,7.1555176-3.1753998,7.1555176h26.3777008h26.3776855
		C233.7963867,492.2095032,233.7117004,488.2294006,230.6210022,485.0539856z"/>
	<g>
		<g>
			<path d="M482.2304993,472.3569031c0.4513855,1.7156067,1.5007019,1.7243042,1.5007019,1.7243042
				s0.1547852,1.1867981,0.6534729,2.3005066c0.3601074,0.803894,1.3416138,2.1372986,1.3416138,2.1372986
				s0.0320129,0.7910767,0.0123901,1.6228027c2.0594177,1.0048828,4.0332031,2.1813965,5.3330994,3.5167847
				c3.599823,3.6986084,3.7388,8.3136902,3.742218,8.5067139l0.0010071,0.0440979h11.0087891
				c0,0-0.0516968-2.4252014-1.9349976-4.3601074s-6.7593079-3.4313049-7.8428955-3.8955994
				c-1.0834961-0.4644165-1.8372192-1.2881165-2.1156006-2.1929016c-0.2578125-0.838501-0.1548157-3.2417908-0.1548157-3.2417908
				s0.9815063-1.3334045,1.3416138-2.1372986c0.4987793-1.1137085,0.653595-2.3005066,0.653595-2.3005066
				s1.0491028-0.0086975,1.5007019-1.7243042c0.5541992-2.1058044-0.7093811-2.5411072-0.7093811-2.5411072
				s0.5157776-1.0835876,0.6705627-3.9216003c0.1549072-2.8377991,0-4.2696838-1.8315735-5.7145081
				c-0.6342163-0.5-1.8835144-0.6965027-1.8835144-0.6965027c-1.6166077-1.3496704-3.7666016-1.4318848-3.7666016-1.4318848
				s-3.0958862-0.2062988-5.0566101,1.4448853c-1.9606934,1.651123-2.579895,3.5602112-2.4252014,6.3980103
				c0.1550293,2.8380127,0.6708069,3.9216003,0.6708069,3.9216003S481.6763,470.2510986,482.2304993,472.3569031z"/>
		</g>
		<path d="M438.0596924,492.1676025c0.0035095-0.1953125,0.1412964-4.8103943,3.7410889-8.5090027
			c2.5085144-2.5769043,7.4951172-4.5895996,10.8312988-5.832489c-0.8701782-0.9295044-1.9358826-2.7415161-1.6367798-5.9503174
			c0.3977051-4.2669983,0.3198853-9.695282-2.4562988-11.6988831c-0.6549988-0.4727173-1.8835144-0.6967163-1.8835144-0.6967163
			c-1.6167908-1.3497009-3.7666931-1.4318848-3.7666931-1.4318848s-3.066803-0.1710205-5.0567932,1.4447937
			c-2.0751038,1.684906-3.7176208,5.2149048-3.0497131,12.3826904c0.4877014,5.2340088-2.6578979,6.7780151-2.6578979,6.7780151
			s2.756897,1.3353882,6.7326965,1.973877c-0.0242004,0.4480286-0.0669861,0.8679199-0.1477966,1.1307068
			c-0.2784119,0.9049072-1.0321045,1.7286072-2.1156921,2.1929932c-1.0834961,0.4644165-5.9597168,1.960907-7.8431091,3.895813
			c-1.8834839,1.9349976-1.9349976,4.3602905-1.9349976,4.3602905h11.2434082L438.0596924,492.1676025z"/>
		<g>
			<path d="M489.6387024,485.0539856c-3.0908203-3.1753845-11.0930176-5.631073-12.8712158-6.39328
				c-1.7782898-0.7621155-3.0149841-2.1138916-3.4718933-3.5988159c-0.4234009-1.3760986-0.2539978-5.3201904-0.2539978-5.3201904
				s1.6106873-2.1882935,2.2015991-3.5076904c0.8186035-1.8276062,1.0726013-3.7752991,1.0726013-3.7752991
				s1.7218933-0.0140991,2.4627991-2.8297119c0.9094849-3.4559937-1.1643066-4.1704102-1.1643066-4.1704102
				s0.8468018-1.7782898,1.1007996-6.4356995c0.2539978-4.6573792,0-7.0072021-3.006073-9.3781738
				c-1.0408325-0.8209229-3.0908203-1.143219-3.0908203-1.143219c-2.6533203-2.21521-6.1816101-2.349884-6.1816101-2.349884
				s-5.0808105-0.3387146-8.298584,2.3710938c-3.217804,2.7096863-4.2340088,5.842804-3.980011,10.5001831
				c0.2540894,4.6574097,1.1008911,6.4356995,1.1008911,6.4356995s-2.0737915,0.7144165-1.1643982,4.1704102
				c0.7409973,2.8156128,2.4627991,2.8297119,2.4627991,2.8297119s0.2539978,1.9476929,1.0726013,3.7752991
				c0.5909119,1.319397,2.2016907,3.5076904,2.2016907,3.5076904s0.1693115,3.9440918-0.2540894,5.3201904
				c-0.4569092,1.4849243-1.6936035,2.8367004-3.4718018,3.5988159c-1.7782898,0.762207-9.7804871,3.2178955-12.8713074,6.39328
				c-3.0907898,3.1755066-3.1754761,7.1555176-3.1754761,7.1555176h26.3776855h26.377594
				C492.8141785,492.2095032,492.7295837,488.2294922,489.6387024,485.0539856z"/>
		</g>
	</g>
	<g>
		<path d="M297.1726074,486.6910095c0-2.8760071,0.8268738-5.5559998,2.2344971-7.8420105
			c-0.1833191-0.0701904-0.346405-0.134491-0.4718018-0.1882019c-1.7781982-0.762207-3.0150146-2.1141052-3.4718018-3.5989075
			c-0.4234009-1.3760986-0.2542114-5.3201904-0.2542114-5.3201904s1.6108093-2.188385,2.2018127-3.5076904
			c0.8184814-1.8276978,1.0726929-3.7754211,1.0726929-3.7754211s1.7217102-0.0139771,2.4625854-2.8295898
			c0.9096069-3.4559937-1.1642761-4.1705017-1.1642761-4.1705017s0.8468018-1.7782898,1.1007996-6.4356995
			c0.2539978-4.6572876,0-7.0071106-3.006012-9.3780823c-1.040802-0.8210144-3.0907898-1.143219-3.0907898-1.143219
			c-2.6533203-2.21521-6.1817017-2.349884-6.1817017-2.349884s-5.0808105-0.3387146-8.2985229,2.3710022
			c-3.217865,2.7096863-4.2340698,5.8428955-3.9799805,10.5001831c0.2539978,4.6574097,1.1007996,6.4356995,1.1007996,6.4356995
			s-2.0737915,0.7145081-1.1643982,4.1705017c0.7409973,2.8156128,2.4627991,2.8295898,2.4627991,2.8295898
			s0.2540894,1.9477234,1.0726929,3.7754211c0.5907898,1.3193054,2.2015991,3.5076904,2.2015991,3.5076904
			s0.1694031,3.9440918-0.2539978,5.3201904c-0.4569092,1.4848022-1.6936035,2.8367004-3.4718018,3.5989075
			c-1.7784119,0.7621155-9.7804871,3.2177124-12.8713074,6.3931885c-3.0908813,3.1755066-3.1754761,7.155426-3.1754761,7.155426
			h26.377594h9.6322937C297.5576782,490.4988098,297.1726074,488.6405029,297.1726074,486.6910095z"/>
		<circle cx="312.1922913" cy="486.6913147" r="13.0187035"/>
		<g>
			<g>
				<line x1="312.1922913" y1="480.0231934" x2="312.1922913" y2="493.3594055"/>
				<path fill="#FFFFFF" d="M312.1918945,494.5360107c-0.650116,0-1.1762085-0.526001-1.1762085-1.1762085v-13.3377075
					c0-0.6500854,0.5260925-1.1762085,1.1762085-1.1762085s1.1762085,0.526123,1.1762085,1.1762085v13.3377075
					C313.368103,494.0100098,312.8420105,494.5360107,312.1918945,494.5360107z"/>
			</g>
			<g>
				<line x1="318.8605042" y1="486.6913147" x2="305.5242004" y2="486.6913147"/>
				<path fill="#FFFFFF" d="M318.8607788,487.8671875h-13.337677c-0.6502075,0-1.1762085-0.5260925-1.1762085-1.176178
					c0-0.6502075,0.526001-1.1762085,1.1762085-1.1762085h13.337677c0.650116,0,1.1762085,0.526001,1.1762085,1.1762085
					C320.0369873,487.341095,319.5108948,487.8671875,318.8607788,487.8671875z"/>
			</g>
		</g>
	</g>
	<g>
		<circle cx="398.4924927" cy="486.6913147" r="13.0186996"/>
		<g>
			<path fill="#FFFFFF" d="M405.1610107,487.8671875h-13.3377075c-0.650116,0-1.1762085-0.5260925-1.1762085-1.176178
				c0-0.6502075,0.5260925-1.1762085,1.1762085-1.1762085h13.3377075c0.6500854,0,1.176178,0.526001,1.176178,1.1762085
				C406.3371887,487.341095,405.8110962,487.8671875,405.1610107,487.8671875z"/>
		</g>
		<path d="M383.4726868,486.6911011c0-2.8760071,0.8269043-5.5559998,2.2344971-7.8421021
			c-0.1832886-0.0701904-0.346405-0.134491-0.4718018-0.1882019c-1.7781982-0.762085-3.0148926-2.1139832-3.4718018-3.5989075
			c-0.4234009-1.3759766-0.2540894-5.3200989-0.2540894-5.3200989s1.6108093-2.188385,2.2016907-3.5076904
			c0.818512-1.8277893,1.0727234-3.7753906,1.0727234-3.7753906s1.7217712-0.0140991,2.4625854-2.8296204
			c0.9096069-3.4560852-1.1643066-4.1705017-1.1643066-4.1705017s0.8468933-1.7783813,1.1009216-6.4356995
			c0.2539062-4.6573792,0-7.0072021-3.0061035-9.3781738c-1.040802-0.8210144-3.0908203-1.1431274-3.0908203-1.1431274
			c-2.6532898-2.2153015-6.1817017-2.3499756-6.1817017-2.3499756s-5.08078-0.3387146-8.2984924,2.3710938
			c-3.217804,2.7096863-4.2341003,5.842804-3.9799805,10.5001831c0.2539978,4.6573181,1.1008911,6.4356995,1.1008911,6.4356995
			s-2.0738831,0.7144165-1.1645203,4.1705017c0.7410278,2.8155212,2.4627991,2.8296204,2.4627991,2.8296204
			s0.2542114,1.9476013,1.0727234,3.7753906c0.5907898,1.3193054,2.2015991,3.5076904,2.2015991,3.5076904
			s0.1694031,3.9441223-0.2539978,5.3200989c-0.4569092,1.4849243-1.6936035,2.8368225-3.4718018,3.5989075
			c-1.7784119,0.7621155-9.7805176,3.2177124-12.8713074,6.3931885c-3.0909119,3.1755066-3.1755066,7.1555176-3.1755066,7.1555176
			h26.377594h9.6323242C383.8577881,490.4989014,383.4726868,488.6405945,383.4726868,486.6911011z"/>
	</g>
</g>
<g>
	<g>
		<path d="M303.8804932,584.6340942c-1.7367859-4.0795898-2.2789917-8.4542847-2.4428101-11.1679688
			c-1.2789917-0.477356-2.315979-0.8414307-2.8282776-1.0609131c-1.7784119-0.762085-3.0150146-2.1140137-3.4718018-3.598938
			c-0.4235229-1.3759766-0.2542114-5.3200684-0.2542114-5.3200684s1.6108093-2.1884155,2.2018127-3.5076904
			c0.8184814-1.8278198,1.0724792-3.7753906,1.0724792-3.7753906s1.7218933-0.0140991,2.4627991-2.8296509
			c0.9094238-3.4560547-1.1642761-4.1704712-1.1642761-4.1704712s0.8466797-1.7783813,1.1007996-6.43573
			c0.2539978-4.6573486,0-7.0072021-3.0062256-9.3781738c-1.0406799-0.8209839-3.0907898-1.1431885-3.0907898-1.1431885
			c-2.6532898-2.21521-6.1816101-2.3499146-6.1816101-2.3499146s-5.0806885-0.3386841-8.298584,2.3710938
			c-3.217804,2.7097168-4.2339172,5.8428345-3.9799194,10.5001831c0.2541199,4.6573486,1.1009216,6.43573,1.1009216,6.43573
			s-2.0737915,0.7144165-1.1643982,4.1704712c0.7409973,2.8155518,2.4627991,2.8296509,2.4627991,2.8296509
			s0.2539978,1.9475708,1.0726013,3.7753906c0.5908813,1.3192749,2.2016907,3.5076904,2.2016907,3.5076904
			s0.1694031,3.9440918-0.2539978,5.3200684c-0.4570007,1.4849243-1.6936951,2.836853-3.4720154,3.598938
			c-1.7781982,0.762085-9.7804871,3.2177124-12.8712769,6.3931885c-3.0908203,3.1754761-3.1755066,7.1555176-3.1755066,7.1555176
			h26.3776855h16.2330017C304.2870789,585.5266724,304.0740967,585.0886841,303.8804932,584.6340942z"/>
		<path d="M314.4530945,593.4544067c0,0,6.1257935-3.4824219,8.7324829-9.6044922
			c2.5778198-6.0543213,2.3460083-12.9719238,2.3460083-12.9719238s-3.0953979,0.1571045-6.2109985-0.8737793
			c-2.6763916-0.885498-4.8674927-2.5872192-4.8674927-2.5872192s-2.1910095,1.7017212-4.8674927,2.5872192
			c-3.1156006,1.0308838-6.2109985,0.8737793-6.2109985,0.8737793s-0.2318115,6.9176025,2.3460999,12.9719238
			C308.3273926,589.9719849,314.4530945,593.4544067,314.4530945,593.4544067z"/>
		<path fill="#FFFFFF" d="M313.7196045,585.7202148c-0.4112244,0-0.7926025-0.2137451-1.0062256-0.5651855l-2.8990784-4.7759399
			c-0.3354187-0.5559082-0.1585083-1.2796021,0.3950806-1.6173096c0.5559082-0.3330688,1.2773132-0.156189,1.6173096,0.3952026
			l1.8561096,3.0599365l4.4037781-7.8037109c0.3194275-0.5675049,1.0384216-0.7650146,1.6035156-0.4456787
			c0.565094,0.3192749,0.7649841,1.0360718,0.4457092,1.6034546l-5.3916016,9.5519409
			c-0.2044983,0.362854-0.5881042,0.5903931-1.0061951,0.59729
			C313.7310791,585.7202148,313.7265015,585.7202148,313.7196045,585.7202148z"/>
	</g>
	<g>
		<path d="M400.7532043,593.4544067c0,0,6.1257935-3.4824219,8.7324829-9.6044922
			c2.5777893-6.0543213,2.3460083-12.9719238,2.3460083-12.9719238s-3.0953979,0.1571045-6.2109985-0.8737793
			c-2.6764221-0.885498-4.8674927-2.5872192-4.8674927-2.5872192s-2.1910095,1.7017212-4.8674011,2.5872192
			c-3.1157227,1.0308838-6.2109985,0.8737793-6.2109985,0.8737793s-0.2318115,6.9176025,2.3459778,12.9719238
			C394.6275024,589.9719849,400.7532043,593.4544067,400.7532043,593.4544067z"/>
		<path d="M390.1807861,584.6340942c-1.7367859-4.0795898-2.2789917-8.4542236-2.4427795-11.1679688
			c-1.2789917-0.4772339-2.3160095-0.8413086-2.8283081-1.0609131c-1.7784119-0.762085-3.0150146-2.1140137-3.4718933-3.598938
			c-0.4234009-1.3759766-0.2541199-5.3200684-0.2541199-5.3200684s1.6108093-2.1884155,2.2018127-3.5076904
			c0.818512-1.8276978,1.0725098-3.7753906,1.0725098-3.7753906s1.7218933-0.0140381,2.4627686-2.8296509
			c0.9094238-3.4559937-1.1642761-4.1704712-1.1642761-4.1704712s0.8466797-1.7783203,1.1007996-6.43573
			c0.2539978-4.6572876,0-7.0070801-3.0061951-9.3780518c-1.0407104-0.8210449-3.0908203-1.1432495-3.0908203-1.1432495
			c-2.6532898-2.215271-6.1815796-2.3498535-6.1815796-2.3498535s-5.080719-0.3387451-8.2986145,2.3709717
			c-3.217804,2.7097168-4.2338867,5.8428955-3.980011,10.5001831c0.2542114,4.6574097,1.1010132,6.43573,1.1010132,6.43573
			s-2.0737915,0.7144775-1.1643982,4.1704712c0.7409973,2.8156128,2.4627991,2.8296509,2.4627991,2.8296509
			s0.2539978,1.9476929,1.0726013,3.7753906c0.5907898,1.3192749,2.2015991,3.5076904,2.2015991,3.5076904
			s0.1694946,3.9440918-0.2539062,5.3200684c-0.4570923,1.4849243-1.6936951,2.836853-3.4719849,3.598938
			c-1.7781982,0.762207-9.7805176,3.2177734-12.8713074,6.3933105c-3.0907898,3.175354-3.1755066,7.1553955-3.1755066,7.1553955
			h26.3777161h16.2329712C390.5874023,585.5267944,390.3743896,585.0886841,390.1807861,584.6340942z"/>
		<g>
			<path fill="#FFFFFF" d="M397.5134888,584.1212769c-0.3009033,0-0.6018982-0.1148682-0.831604-0.3446045
				c-0.4593811-0.4594727-0.4593811-1.2037964,0-1.663147l6.4782104-6.4782104c0.4595032-0.4595337,1.2037964-0.4595337,1.663208,0
				c0.4594727,0.4594116,0.4594727,1.2036743,0,1.663208l-6.4782104,6.4781494
				C398.115387,584.0064087,397.8144836,584.1212769,397.5134888,584.1212769z"/>
			<path fill="#FFFFFF" d="M403.9916992,584.1212769c-0.3009033,0-0.6018982-0.1148682-0.831604-0.3446045l-6.4782104-6.4781494
				c-0.4593811-0.4595337-0.4593811-1.2037964,0-1.663208c0.4595032-0.4595337,1.2037964-0.4595337,1.663208,0l6.4782104,6.4782104
				c0.4594727,0.4593506,0.4594727,1.2036743,0,1.663147C404.5935974,584.0064087,404.2926941,584.1212769,403.9916992,584.1212769z
				"/>
		</g>
	</g>
	<path d="M489.5213928,578.7984009c-3.0908203-3.1754761-11.0930176-5.6311035-12.8713074-6.3931885
		c-0.7427063-0.3182983-1.3648071-0.7567139-1.9013062-1.2474365l0.1175232,0.1973267l-4.184906,5.90802l-3.5014038-6.7474976
		l5.8952942-2.1705322l0.0078125,0.0128784c-0.2940979-1.6244507-0.1588135-4.8717651-0.1588135-4.8717651
		s1.6105957-2.1884155,2.2015991-3.5076904c0.818512-1.8278198,1.0726013-3.7753906,1.0726013-3.7753906
		s1.7218018-0.0140991,2.4627991-2.8296509c0.9093933-3.4560547-1.1643982-4.1704712-1.1643982-4.1704712
		s0.8468018-1.7783813,1.1007996-6.43573c0.2542114-4.6573486,0-7.0072021-3.0061035-9.3781738
		c-1.0407104-0.8209839-3.0906982-1.1431885-3.0906982-1.1431885c-2.6532898-2.21521-6.1816101-2.3499146-6.1816101-2.3499146
		s-5.0808716-0.3386841-8.298584,2.3710938c-3.2178955,2.7097168-4.2341003,5.8428345-3.980011,10.5001831
		c0.2539978,4.6573486,1.1007996,6.43573,1.1007996,6.43573s-2.0737915,0.7144165-1.1643982,4.1704712
		c0.7409973,2.8155518,2.4627991,2.8296509,2.4627991,2.8296509s0.2541199,1.9475708,1.0726929,3.7753906
		c0.5909119,1.3192749,2.2016296,3.5076904,2.2016296,3.5076904s0.135376,3.2487793-0.1590271,4.8728638l0.008606-0.0139771
		l5.8254089,2.1705322l-3.5014038,6.7474976l-4.184906-5.90802l0.050293-0.0812988
		c-0.5093994,0.4403687-1.0825806,0.8388672-1.7648926,1.1314087c-1.7782898,0.762085-9.7803955,3.2177124-12.8711853,6.3931885
		c-3.0908203,3.1754761-3.1755066,7.1555176-3.1755066,7.1555176h26.3776855h26.3776245
		C492.6968994,585.9539185,492.6120911,581.973877,489.5213928,578.7984009z"/>
	<g>
		<circle cx="139.5919037" cy="580.43573" r="13.0186996"/>
		<path fill="#FFFFFF" d="M138.1190033,587.263916c-0.4101105,0-0.7914124-0.213623-1.0051117-0.5651245l-3.4308929-5.6511841
			c-0.3377075-0.5560303-0.1607971-1.2796021,0.3950958-1.6173096c0.5559998-0.3330688,1.2796021-0.156189,1.6150055,0.3952026
			l2.3890991,3.9351196l5.3892975-9.5565186c0.3170929-0.5651245,1.0348969-0.7695923,1.6024017-0.4456177
			c0.5661926,0.3193359,0.766098,1.0360107,0.4467926,1.6033936l-6.3771973,11.3047485
			c-0.2055969,0.3629761-0.5879974,0.5903931-1.0061035,0.59729
			C138.1315918,587.263916,138.1246948,587.263916,138.1190033,587.263916z"/>
		<path d="M124.5722961,580.4354858c0-2.8759766,0.8267975-5.5559692,2.2344971-7.84198
			c-0.1833954-0.0701904-0.3464966-0.1345215-0.4717941-0.1882324c-1.7782059-0.762146-3.0149994-2.1140747-3.4719009-3.598999
			c-0.4234009-1.3759766-0.254097-5.3200684-0.254097-5.3200684s1.6107941-2.1884155,2.2016983-3.5076904
			c0.8185959-1.8276978,1.0727005-3.7753906,1.0727005-3.7753906s1.7217941-0.0140381,2.4625931-2.8296509
			c0.9096069-3.4559937-1.1641998-4.1704712-1.1641998-4.1704712s0.8468018-1.7783203,1.1007996-6.43573
			c0.2539978-4.6572876,0-7.0070801-3.0060959-9.3780518c-1.040802-0.8210449-3.0907974-1.1432495-3.0907974-1.1432495
			c-2.6533051-2.2151489-6.1817017-2.3498535-6.1817017-2.3498535s-5.0808029-0.3387451-8.2985001,2.3709717
			c-3.217804,2.7097168-4.2341003,5.8428955-3.9799042,10.5001831c0.2540054,4.6574097,1.1008072,6.43573,1.1008072,6.43573
			s-2.0738068,0.7144775-1.1643982,4.1704712c0.7409973,2.8156128,2.4626923,2.8296509,2.4626923,2.8296509
			s0.2542038,1.9476929,1.0727005,3.7753906c0.5908051,1.3192749,2.2016068,3.5076904,2.2016068,3.5076904
			s0.1693954,3.9440918-0.2540054,5.3200684c-0.4568024,1.4849243-1.6935959,2.836853-3.4718018,3.598999
			c-1.7782974,0.762146-9.7804947,3.2177124-12.8712921,6.3932495c-3.0909042,3.1754761-3.175499,7.1553955-3.175499,7.1553955
			h26.377594h9.6323013C124.9572983,584.2432861,124.5722961,582.3850098,124.5722961,580.4354858z"/>
	</g>
	<g>
		<circle cx="225.8920898" cy="580.43573" r="13.0186996"/>
		<g>
			<path fill="#FFFFFF" d="M221.17659,586.3265991c-0.3008881,0-0.6017914-0.1148071-0.8315887-0.3446045
				c-0.4594116-0.4594116-0.4594116-1.2036743,0-1.663208l9.430191-9.4301147c0.4593964-0.4594727,1.2037048-0.4594727,1.663208,0
				c0.4593964,0.4594116,0.4593964,1.2037354,0,1.663208l-9.4302063,9.4301147
				C221.7784882,586.211792,221.4776001,586.3265991,221.17659,586.3265991z"/>
			<path fill="#FFFFFF" d="M230.6067963,586.3265991c-0.3009033,0-0.6018982-0.1148071-0.831604-0.3446045l-9.430191-9.4301147
				c-0.4594116-0.4594727-0.4594116-1.2037964,0-1.663208c0.4594879-0.4594727,1.2037964-0.4594727,1.6631927,0l9.4302063,9.4301147
				c0.4593964,0.4595337,0.4593964,1.2037964,0,1.663208C231.2086945,586.211792,230.9076996,586.3265991,230.6067963,586.3265991z"
				/>
		</g>
		<path d="M210.8723907,580.4354858c0-2.8759766,0.8269043-5.5559692,2.2344971-7.84198
			c-0.1832886-0.0701904-0.3463898-0.1345825-0.4717865-0.1882935c-1.7782135-0.762085-3.0149078-2.1140137-3.4718018-3.598938
			c-0.4234009-1.3759766-0.2541046-5.3200684-0.2541046-5.3200684s1.6108093-2.1884155,2.2017059-3.5076904
			c0.8185883-1.8276978,1.0726929-3.7753906,1.0726929-3.7753906s1.7218018-0.0140381,2.4626007-2.8296509
			c0.9096069-3.4559937-1.1641998-4.1704712-1.1641998-4.1704712s0.8468018-1.7783203,1.1007996-6.43573
			c0.2539062-4.6572876,0-7.0070801-3.0061035-9.3780518c-1.040802-0.8210449-3.0907898-1.1432495-3.0907898-1.1432495
			c-2.6533051-2.215271-6.1817017-2.3498535-6.1817017-2.3498535s-5.0808105-0.3387451-8.2985077,2.3709717
			c-3.217804,2.7097168-4.2341003,5.8428955-3.9798889,10.5001831c0.253891,4.6574097,1.1007996,6.43573,1.1007996,6.43573
			s-2.0739136,0.7144775-1.164505,4.1704712c0.7409973,2.8156128,2.4627991,2.8296509,2.4627991,2.8296509
			s0.2541962,1.9476929,1.0726929,3.7753906c0.5908051,1.3192749,2.2015991,3.5076904,2.2015991,3.5076904
			s0.1694031,3.9440918-0.2539978,5.3200684c-0.4568024,1.4849243-1.6935883,2.836853-3.4718018,3.598938
			c-1.7783813,0.762207-9.7804871,3.2177734-12.8712921,6.3933105c-3.0908966,3.175354-3.1755066,7.1553955-3.1755066,7.1553955
			h26.3776093h9.6322937C211.2574921,584.2432861,210.8723907,582.3850098,210.8723907,580.4354858z"/>
	</g>
</g>
</svg>
